<mxfile host="65bd71144e" pages="4">
    <diagram id="QZoIV7y4iu6GH5jPl6gE" name="制作フロー">
        <mxGraphModel dx="1417" dy="618" grid="1" gridSize="10" guides="1" tooltips="1" connect="1" arrows="1" fold="1" page="1" pageScale="1" pageWidth="827" pageHeight="1169" math="0" shadow="0">
            <root>
                <mxCell id="0"/>
                <mxCell id="1" parent="0"/>
                <mxCell id="Svl1HbeHAaXiKfEnw7dw-1" value="Pool" style="swimlane;html=1;childLayout=stackLayout;startSize=20;rounded=0;shadow=0;labelBackgroundColor=none;strokeWidth=2;fontFamily=Verdana;fontSize=8;align=center;" parent="1" vertex="1">
                    <mxGeometry x="-150" y="30" width="1170" height="1280" as="geometry"/>
                </mxCell>
                <mxCell id="Svl1HbeHAaXiKfEnw7dw-25" value="5月上旬" style="swimlane;html=1;startSize=20;dashed=1;strokeWidth=1;dashPattern=1 2;" parent="Svl1HbeHAaXiKfEnw7dw-1" vertex="1">
                    <mxGeometry y="20" width="170" height="1260" as="geometry"/>
                </mxCell>
                <mxCell id="Svl1HbeHAaXiKfEnw7dw-18" value="マイコン・確定部品発注" style="rounded=1;whiteSpace=wrap;html=1;shadow=0;labelBackgroundColor=none;strokeWidth=1;fontFamily=Verdana;fontSize=8;align=center;" parent="Svl1HbeHAaXiKfEnw7dw-25" vertex="1">
                    <mxGeometry y="1010" width="100" height="60" as="geometry"/>
                </mxCell>
                <mxCell id="Svl1HbeHAaXiKfEnw7dw-21" value="3軸決定" style="rounded=1;whiteSpace=wrap;html=1;shadow=0;labelBackgroundColor=none;strokeWidth=1;fontFamily=Verdana;fontSize=8;align=center;" parent="Svl1HbeHAaXiKfEnw7dw-25" vertex="1">
                    <mxGeometry y="890" width="100" height="60" as="geometry"/>
                </mxCell>
                <mxCell id="Svl1HbeHAaXiKfEnw7dw-15" value="分離基盤設計" style="rounded=1;whiteSpace=wrap;html=1;shadow=0;labelBackgroundColor=none;strokeWidth=1;fontFamily=Verdana;fontSize=8;align=center;" parent="Svl1HbeHAaXiKfEnw7dw-25" vertex="1">
                    <mxGeometry y="710" width="100" height="60" as="geometry"/>
                </mxCell>
                <mxCell id="Svl1HbeHAaXiKfEnw7dw-33" value="5月下旬" style="swimlane;html=1;startSize=20;dashed=1;dashPattern=1 2;" parent="Svl1HbeHAaXiKfEnw7dw-1" vertex="1">
                    <mxGeometry x="170" y="20" width="190" height="1260" as="geometry"/>
                </mxCell>
                <mxCell id="Svl1HbeHAaXiKfEnw7dw-41" value="新入生教育・回路量産" style="rounded=1;whiteSpace=wrap;html=1;shadow=0;labelBackgroundColor=none;strokeWidth=1;fontFamily=Verdana;fontSize=8;align=center;" parent="Svl1HbeHAaXiKfEnw7dw-33" vertex="1">
                    <mxGeometry x="90" y="1100" width="100" height="60" as="geometry"/>
                </mxCell>
                <mxCell id="Svl1HbeHAaXiKfEnw7dw-42" value="実施形態の深掘り" style="rounded=1;whiteSpace=wrap;html=1;shadow=0;labelBackgroundColor=none;strokeWidth=1;fontFamily=Verdana;fontSize=8;align=center;" parent="Svl1HbeHAaXiKfEnw7dw-33" vertex="1">
                    <mxGeometry x="30" y="1010" width="100" height="60" as="geometry"/>
                </mxCell>
                <mxCell id="Svl1HbeHAaXiKfEnw7dw-43" style="edgeStyle=orthogonalEdgeStyle;rounded=0;orthogonalLoop=1;jettySize=auto;html=1;entryX=0.5;entryY=0;entryDx=0;entryDy=0;" parent="Svl1HbeHAaXiKfEnw7dw-33" source="Svl1HbeHAaXiKfEnw7dw-42" target="Svl1HbeHAaXiKfEnw7dw-41" edge="1">
                    <mxGeometry relative="1" as="geometry">
                        <Array as="points">
                            <mxPoint x="80" y="1090"/>
                            <mxPoint x="140" y="1090"/>
                        </Array>
                    </mxGeometry>
                </mxCell>
                <mxCell id="Svl1HbeHAaXiKfEnw7dw-30" value="電装プレート発注" style="rounded=1;whiteSpace=wrap;html=1;shadow=0;labelBackgroundColor=none;strokeWidth=1;fontFamily=Verdana;fontSize=8;align=center;" parent="Svl1HbeHAaXiKfEnw7dw-33" vertex="1">
                    <mxGeometry x="90" y="710" width="100" height="60" as="geometry"/>
                </mxCell>
                <mxCell id="Svl1HbeHAaXiKfEnw7dw-27" value="本番プリント" style="rounded=1;whiteSpace=wrap;html=1;shadow=0;labelBackgroundColor=none;strokeWidth=1;fontFamily=Verdana;fontSize=8;align=center;" parent="Svl1HbeHAaXiKfEnw7dw-33" vertex="1">
                    <mxGeometry x="20" y="315" width="100" height="60" as="geometry"/>
                </mxCell>
                <mxCell id="Svl1HbeHAaXiKfEnw7dw-31" value="金属部品発注" style="rounded=1;whiteSpace=wrap;html=1;shadow=0;labelBackgroundColor=none;strokeWidth=1;fontFamily=Verdana;fontSize=8;align=center;" parent="Svl1HbeHAaXiKfEnw7dw-33" vertex="1">
                    <mxGeometry x="80" y="520" width="100" height="60" as="geometry"/>
                </mxCell>
                <mxCell id="Svl1HbeHAaXiKfEnw7dw-24" value="ES成功" style="rounded=1;whiteSpace=wrap;html=1;shadow=0;labelBackgroundColor=none;strokeWidth=1;fontFamily=Verdana;fontSize=8;align=center;" parent="Svl1HbeHAaXiKfEnw7dw-33" vertex="1">
                    <mxGeometry x="90" y="780" width="100" height="60" as="geometry"/>
                </mxCell>
                <mxCell id="Svl1HbeHAaXiKfEnw7dw-32" value="デザイン" style="rounded=1;whiteSpace=wrap;html=1;shadow=0;labelBackgroundColor=none;strokeWidth=1;fontFamily=Verdana;fontSize=8;align=center;" parent="Svl1HbeHAaXiKfEnw7dw-33" vertex="1">
                    <mxGeometry x="45" y="390" width="100" height="60" as="geometry"/>
                </mxCell>
                <mxCell id="Svl1HbeHAaXiKfEnw7dw-37" value="チューブ穴空け" style="rounded=1;whiteSpace=wrap;html=1;shadow=0;labelBackgroundColor=none;strokeWidth=1;fontFamily=Verdana;fontSize=8;align=center;" parent="Svl1HbeHAaXiKfEnw7dw-33" vertex="1">
                    <mxGeometry x="90" y="460" width="100" height="60" as="geometry"/>
                </mxCell>
                <mxCell id="Svl1HbeHAaXiKfEnw7dw-48" value="6月上旬" style="swimlane;html=1;startSize=20;dashed=1;dashPattern=1 2;" parent="Svl1HbeHAaXiKfEnw7dw-1" vertex="1">
                    <mxGeometry x="360" y="20" width="170" height="1260" as="geometry"/>
                </mxCell>
                <mxCell id="Svl1HbeHAaXiKfEnw7dw-49" value="機体仮組" style="rounded=1;whiteSpace=wrap;html=1;shadow=0;labelBackgroundColor=none;strokeWidth=1;fontFamily=Verdana;fontSize=8;align=center;" parent="Svl1HbeHAaXiKfEnw7dw-48" vertex="1">
                    <mxGeometry x="80" y="315" width="100" height="60" as="geometry"/>
                </mxCell>
                <mxCell id="Svl1HbeHAaXiKfEnw7dw-50" style="edgeStyle=orthogonalEdgeStyle;rounded=0;orthogonalLoop=1;jettySize=auto;html=1;entryX=0;entryY=0.5;entryDx=0;entryDy=0;" parent="Svl1HbeHAaXiKfEnw7dw-48" source="Svl1HbeHAaXiKfEnw7dw-51" target="Svl1HbeHAaXiKfEnw7dw-52" edge="1">
                    <mxGeometry relative="1" as="geometry"/>
                </mxCell>
                <mxCell id="Svl1HbeHAaXiKfEnw7dw-51" value="第1次審査書期（期末後）" style="rounded=1;whiteSpace=wrap;html=1;shadow=0;labelBackgroundColor=none;strokeWidth=1;fontFamily=Verdana;fontSize=8;align=center;" parent="Svl1HbeHAaXiKfEnw7dw-48" vertex="1">
                    <mxGeometry x="-60" y="90" width="130" height="60" as="geometry"/>
                </mxCell>
                <mxCell id="Svl1HbeHAaXiKfEnw7dw-52" value="プレ" style="rounded=1;whiteSpace=wrap;html=1;shadow=0;labelBackgroundColor=none;strokeWidth=1;fontFamily=Verdana;fontSize=8;align=center;" parent="Svl1HbeHAaXiKfEnw7dw-48" vertex="1">
                    <mxGeometry x="70" y="30" width="20" height="60" as="geometry"/>
                </mxCell>
                <mxCell id="Svl1HbeHAaXiKfEnw7dw-53" value="追加発注" style="rounded=1;whiteSpace=wrap;html=1;shadow=0;labelBackgroundColor=none;strokeWidth=1;fontFamily=Verdana;fontSize=8;align=center;" parent="Svl1HbeHAaXiKfEnw7dw-48" vertex="1">
                    <mxGeometry x="30" y="1010" width="100" height="60" as="geometry"/>
                </mxCell>
                <mxCell id="Svl1HbeHAaXiKfEnw7dw-54" value="チューブ塗装" style="rounded=1;whiteSpace=wrap;html=1;shadow=0;labelBackgroundColor=none;strokeWidth=1;fontFamily=Verdana;fontSize=8;align=center;" parent="Svl1HbeHAaXiKfEnw7dw-48" vertex="1">
                    <mxGeometry x="130" y="475" width="100" height="60" as="geometry"/>
                </mxCell>
                <mxCell id="Svl1HbeHAaXiKfEnw7dw-39" value="金属加工" style="rounded=1;whiteSpace=wrap;html=1;shadow=0;labelBackgroundColor=none;strokeWidth=1;fontFamily=Verdana;fontSize=8;align=center;" parent="Svl1HbeHAaXiKfEnw7dw-48" vertex="1">
                    <mxGeometry x="20" y="520" width="100" height="60" as="geometry"/>
                </mxCell>
                <mxCell id="Svl1HbeHAaXiKfEnw7dw-45" value="モジュール結合・試験" style="rounded=1;whiteSpace=wrap;html=1;shadow=0;labelBackgroundColor=none;strokeWidth=1;fontFamily=Verdana;fontSize=8;align=center;" parent="Svl1HbeHAaXiKfEnw7dw-48" vertex="1">
                    <mxGeometry x="35" y="780" width="100" height="60" as="geometry"/>
                </mxCell>
                <mxCell id="Svl1HbeHAaXiKfEnw7dw-36" value="電装タワー制作" style="rounded=1;whiteSpace=wrap;html=1;shadow=0;labelBackgroundColor=none;strokeWidth=1;fontFamily=Verdana;fontSize=8;align=center;" parent="Svl1HbeHAaXiKfEnw7dw-48" vertex="1">
                    <mxGeometry x="20" y="630" width="100" height="60" as="geometry"/>
                </mxCell>
                <mxCell id="Svl1HbeHAaXiKfEnw7dw-38" value="" style="edgeStyle=orthogonalEdgeStyle;rounded=0;orthogonalLoop=1;jettySize=auto;html=1;" parent="Svl1HbeHAaXiKfEnw7dw-48" source="Svl1HbeHAaXiKfEnw7dw-39" target="Svl1HbeHAaXiKfEnw7dw-36" edge="1">
                    <mxGeometry relative="1" as="geometry"/>
                </mxCell>
                <mxCell id="Svl1HbeHAaXiKfEnw7dw-47" style="edgeStyle=orthogonalEdgeStyle;rounded=0;orthogonalLoop=1;jettySize=auto;html=1;entryX=0.5;entryY=0;entryDx=0;entryDy=0;" parent="Svl1HbeHAaXiKfEnw7dw-48" source="Svl1HbeHAaXiKfEnw7dw-36" target="Svl1HbeHAaXiKfEnw7dw-45" edge="1">
                    <mxGeometry relative="1" as="geometry">
                        <mxPoint x="50" y="710" as="targetPoint"/>
                        <Array as="points">
                            <mxPoint x="85" y="660"/>
                        </Array>
                    </mxGeometry>
                </mxCell>
                <mxCell id="Svl1HbeHAaXiKfEnw7dw-40" value="歓迎ご飯" style="rounded=1;whiteSpace=wrap;html=1;shadow=0;labelBackgroundColor=none;strokeWidth=1;fontFamily=Verdana;fontSize=8;align=center;" parent="Svl1HbeHAaXiKfEnw7dw-48" vertex="1">
                    <mxGeometry y="1170" width="100" height="60" as="geometry"/>
                </mxCell>
                <mxCell id="2" style="edgeStyle=none;html=1;" parent="Svl1HbeHAaXiKfEnw7dw-48" source="Svl1HbeHAaXiKfEnw7dw-44" target="Svl1HbeHAaXiKfEnw7dw-45" edge="1">
                    <mxGeometry relative="1" as="geometry"/>
                </mxCell>
                <mxCell id="Svl1HbeHAaXiKfEnw7dw-44" value="3軸成功" style="rounded=1;whiteSpace=wrap;html=1;shadow=0;labelBackgroundColor=none;strokeWidth=1;fontFamily=Verdana;fontSize=8;align=center;" parent="Svl1HbeHAaXiKfEnw7dw-48" vertex="1">
                    <mxGeometry x="35" y="890" width="100" height="60" as="geometry"/>
                </mxCell>
                <mxCell id="Svl1HbeHAaXiKfEnw7dw-16" value="ロードセル箱・基盤" style="rounded=1;whiteSpace=wrap;html=1;shadow=0;labelBackgroundColor=none;strokeWidth=1;fontFamily=Verdana;fontSize=8;align=center;" parent="Svl1HbeHAaXiKfEnw7dw-48" vertex="1">
                    <mxGeometry y="230" width="100" height="60" as="geometry"/>
                </mxCell>
                <mxCell id="Svl1HbeHAaXiKfEnw7dw-34" value="分離組み立て" style="rounded=1;whiteSpace=wrap;html=1;shadow=0;labelBackgroundColor=none;strokeWidth=1;fontFamily=Verdana;fontSize=8;align=center;" parent="Svl1HbeHAaXiKfEnw7dw-48" vertex="1">
                    <mxGeometry x="-40" y="315" width="100" height="60" as="geometry"/>
                </mxCell>
                <mxCell id="UPXuh7KAjXibafU46sPU-4" style="edgeStyle=orthogonalEdgeStyle;rounded=0;orthogonalLoop=1;jettySize=auto;html=1;entryX=0;entryY=0.5;entryDx=0;entryDy=0;" parent="Svl1HbeHAaXiKfEnw7dw-48" source="Svl1HbeHAaXiKfEnw7dw-34" target="Svl1HbeHAaXiKfEnw7dw-49" edge="1">
                    <mxGeometry relative="1" as="geometry"/>
                </mxCell>
                <mxCell id="Svl1HbeHAaXiKfEnw7dw-55" value="6月下旬" style="swimlane;html=1;startSize=20;dashed=1;dashPattern=1 2;" parent="Svl1HbeHAaXiKfEnw7dw-1" vertex="1">
                    <mxGeometry x="530" y="20" width="160" height="1260" as="geometry"/>
                </mxCell>
                <mxCell id="Svl1HbeHAaXiKfEnw7dw-56" value="新入生教育" style="rounded=1;whiteSpace=wrap;html=1;shadow=0;labelBackgroundColor=none;strokeWidth=1;fontFamily=Verdana;fontSize=8;align=center;" parent="Svl1HbeHAaXiKfEnw7dw-55" vertex="1">
                    <mxGeometry x="30" y="1170" width="100" height="60" as="geometry"/>
                </mxCell>
                <mxCell id="Svl1HbeHAaXiKfEnw7dw-57" value="1st" style="rounded=1;whiteSpace=wrap;html=1;shadow=0;labelBackgroundColor=none;strokeWidth=1;fontFamily=Verdana;fontSize=8;align=center;" parent="Svl1HbeHAaXiKfEnw7dw-55" vertex="1">
                    <mxGeometry x="70" y="30" width="20" height="60" as="geometry"/>
                </mxCell>
                <mxCell id="Svl1HbeHAaXiKfEnw7dw-59" style="edgeStyle=orthogonalEdgeStyle;rounded=0;orthogonalLoop=1;jettySize=auto;html=1;entryX=0;entryY=0.5;entryDx=0;entryDy=0;" parent="Svl1HbeHAaXiKfEnw7dw-55" source="Svl1HbeHAaXiKfEnw7dw-60" target="Svl1HbeHAaXiKfEnw7dw-63" edge="1">
                    <mxGeometry relative="1" as="geometry">
                        <Array as="points">
                            <mxPoint x="10" y="460"/>
                        </Array>
                    </mxGeometry>
                </mxCell>
                <mxCell id="UPXuh7KAjXibafU46sPU-9" style="edgeStyle=orthogonalEdgeStyle;rounded=0;orthogonalLoop=1;jettySize=auto;html=1;entryX=0.5;entryY=1;entryDx=0;entryDy=0;" parent="Svl1HbeHAaXiKfEnw7dw-55" source="Svl1HbeHAaXiKfEnw7dw-60" target="Svl1HbeHAaXiKfEnw7dw-62" edge="1">
                    <mxGeometry relative="1" as="geometry"/>
                </mxCell>
                <mxCell id="Svl1HbeHAaXiKfEnw7dw-60" value="重心計測" style="rounded=1;whiteSpace=wrap;html=1;shadow=0;labelBackgroundColor=none;strokeWidth=1;fontFamily=Verdana;fontSize=8;align=center;" parent="Svl1HbeHAaXiKfEnw7dw-55" vertex="1">
                    <mxGeometry x="30" y="315" width="100" height="60" as="geometry"/>
                </mxCell>
                <mxCell id="Svl1HbeHAaXiKfEnw7dw-61" style="edgeStyle=orthogonalEdgeStyle;rounded=0;orthogonalLoop=1;jettySize=auto;html=1;" parent="Svl1HbeHAaXiKfEnw7dw-55" source="Svl1HbeHAaXiKfEnw7dw-62" edge="1">
                    <mxGeometry relative="1" as="geometry">
                        <mxPoint x="50" y="60" as="targetPoint"/>
                        <Array as="points">
                            <mxPoint x="50" y="90"/>
                            <mxPoint x="50" y="90"/>
                        </Array>
                    </mxGeometry>
                </mxCell>
                <mxCell id="Svl1HbeHAaXiKfEnw7dw-62" value="第2次シミュレーション" style="rounded=1;whiteSpace=wrap;html=1;shadow=0;labelBackgroundColor=none;strokeWidth=1;fontFamily=Verdana;fontSize=8;align=center;" parent="Svl1HbeHAaXiKfEnw7dw-55" vertex="1">
                    <mxGeometry x="30" y="160" width="100" height="60" as="geometry"/>
                </mxCell>
                <mxCell id="Svl1HbeHAaXiKfEnw7dw-63" value="フィン決定" style="rounded=1;whiteSpace=wrap;html=1;shadow=0;labelBackgroundColor=none;strokeWidth=1;fontFamily=Verdana;fontSize=8;align=center;" parent="Svl1HbeHAaXiKfEnw7dw-55" vertex="1">
                    <mxGeometry x="60" y="430" width="100" height="60" as="geometry"/>
                </mxCell>
                <mxCell id="Svl1HbeHAaXiKfEnw7dw-64" value="回路完成" style="rounded=1;whiteSpace=wrap;html=1;shadow=0;labelBackgroundColor=none;strokeWidth=1;fontFamily=Verdana;fontSize=8;align=center;" parent="Svl1HbeHAaXiKfEnw7dw-55" vertex="1">
                    <mxGeometry x="30" y="780" width="100" height="60" as="geometry"/>
                </mxCell>
                <mxCell id="4" value="地上燃焼試験1st" style="rounded=1;whiteSpace=wrap;html=1;shadow=0;labelBackgroundColor=none;strokeWidth=1;fontFamily=Verdana;fontSize=8;align=center;" parent="Svl1HbeHAaXiKfEnw7dw-55" vertex="1">
                    <mxGeometry x="60" y="230" width="100" height="60" as="geometry"/>
                </mxCell>
                <mxCell id="Svl1HbeHAaXiKfEnw7dw-65" value="7月上旬" style="swimlane;html=1;startSize=20;dashed=1;dashPattern=1 2;" parent="Svl1HbeHAaXiKfEnw7dw-1" vertex="1">
                    <mxGeometry x="690" y="20" width="160" height="1260" as="geometry"/>
                </mxCell>
                <mxCell id="Svl1HbeHAaXiKfEnw7dw-66" style="edgeStyle=orthogonalEdgeStyle;rounded=0;orthogonalLoop=1;jettySize=auto;html=1;entryX=0;entryY=0.5;entryDx=0;entryDy=0;" parent="Svl1HbeHAaXiKfEnw7dw-65" source="Svl1HbeHAaXiKfEnw7dw-67" target="Svl1HbeHAaXiKfEnw7dw-70" edge="1">
                    <mxGeometry relative="1" as="geometry">
                        <Array as="points">
                            <mxPoint x="30" y="98"/>
                        </Array>
                    </mxGeometry>
                </mxCell>
                <mxCell id="Svl1HbeHAaXiKfEnw7dw-67" value="第2&lt;span style=&quot;background-color: transparent; color: light-dark(rgb(0, 0, 0), rgb(255, 255, 255));&quot;&gt;次審査書&lt;/span&gt;期&lt;span style=&quot;background-color: transparent; color: light-dark(rgb(0, 0, 0), rgb(255, 255, 255));&quot;&gt;（期末後）&lt;/span&gt;" style="rounded=1;whiteSpace=wrap;html=1;shadow=0;labelBackgroundColor=none;strokeWidth=1;fontFamily=Verdana;fontSize=8;align=center;" parent="Svl1HbeHAaXiKfEnw7dw-65" vertex="1">
                    <mxGeometry x="-30" y="90" width="140" height="60" as="geometry"/>
                </mxCell>
                <mxCell id="Svl1HbeHAaXiKfEnw7dw-68" style="edgeStyle=orthogonalEdgeStyle;rounded=0;orthogonalLoop=1;jettySize=auto;html=1;" parent="Svl1HbeHAaXiKfEnw7dw-65" source="Svl1HbeHAaXiKfEnw7dw-69" edge="1">
                    <mxGeometry relative="1" as="geometry">
                        <mxPoint x="79.99999999999977" y="190" as="targetPoint"/>
                    </mxGeometry>
                </mxCell>
                <mxCell id="Svl1HbeHAaXiKfEnw7dw-69" value="地上燃焼試験2nd" style="rounded=1;whiteSpace=wrap;html=1;shadow=0;labelBackgroundColor=none;strokeWidth=1;fontFamily=Verdana;fontSize=8;align=center;" parent="Svl1HbeHAaXiKfEnw7dw-65" vertex="1">
                    <mxGeometry x="60" y="230" width="100" height="60" as="geometry"/>
                </mxCell>
                <mxCell id="Svl1HbeHAaXiKfEnw7dw-70" value="2nd" style="rounded=1;whiteSpace=wrap;html=1;shadow=0;labelBackgroundColor=none;strokeWidth=1;fontFamily=Verdana;fontSize=8;align=center;" parent="Svl1HbeHAaXiKfEnw7dw-65" vertex="1">
                    <mxGeometry x="70" y="30" width="20" height="60" as="geometry"/>
                </mxCell>
                <mxCell id="Svl1HbeHAaXiKfEnw7dw-71" style="edgeStyle=orthogonalEdgeStyle;rounded=0;orthogonalLoop=1;jettySize=auto;html=1;entryX=1;entryY=0.25;entryDx=0;entryDy=0;" parent="Svl1HbeHAaXiKfEnw7dw-65" source="Svl1HbeHAaXiKfEnw7dw-70" target="Svl1HbeHAaXiKfEnw7dw-67" edge="1">
                    <mxGeometry relative="1" as="geometry">
                        <Array as="points">
                            <mxPoint x="130" y="60"/>
                            <mxPoint x="130" y="105"/>
                        </Array>
                    </mxGeometry>
                </mxCell>
                <mxCell id="Svl1HbeHAaXiKfEnw7dw-72" value="フィン制作*4^3" style="rounded=1;whiteSpace=wrap;html=1;shadow=0;labelBackgroundColor=none;strokeWidth=1;fontFamily=Verdana;fontSize=8;align=center;" parent="Svl1HbeHAaXiKfEnw7dw-65" vertex="1">
                    <mxGeometry x="30" y="430" width="100" height="60" as="geometry"/>
                </mxCell>
                <mxCell id="Svl1HbeHAaXiKfEnw7dw-73" value="7月下旬" style="swimlane;html=1;startSize=20;dashed=1;dashPattern=1 2;" parent="Svl1HbeHAaXiKfEnw7dw-1" vertex="1">
                    <mxGeometry x="850" y="20" width="160" height="1260" as="geometry"/>
                </mxCell>
                <mxCell id="Svl1HbeHAaXiKfEnw7dw-74" value="3rd" style="rounded=1;whiteSpace=wrap;html=1;shadow=0;labelBackgroundColor=none;strokeWidth=1;fontFamily=Verdana;fontSize=8;align=center;" parent="Svl1HbeHAaXiKfEnw7dw-73" vertex="1">
                    <mxGeometry x="70" y="30" width="20" height="60" as="geometry"/>
                </mxCell>
                <mxCell id="Svl1HbeHAaXiKfEnw7dw-75" style="edgeStyle=orthogonalEdgeStyle;rounded=0;orthogonalLoop=1;jettySize=auto;html=1;" parent="Svl1HbeHAaXiKfEnw7dw-73" source="Svl1HbeHAaXiKfEnw7dw-76" target="Svl1HbeHAaXiKfEnw7dw-74" edge="1">
                    <mxGeometry relative="1" as="geometry"/>
                </mxCell>
                <mxCell id="Svl1HbeHAaXiKfEnw7dw-76" value="第3&lt;span style=&quot;background-color: transparent; color: light-dark(rgb(0, 0, 0), rgb(255, 255, 255));&quot;&gt;次シミュレーション&lt;/span&gt;" style="rounded=1;whiteSpace=wrap;html=1;shadow=0;labelBackgroundColor=none;strokeWidth=1;fontFamily=Verdana;fontSize=8;align=center;" parent="Svl1HbeHAaXiKfEnw7dw-73" vertex="1">
                    <mxGeometry x="30" y="160" width="100" height="60" as="geometry"/>
                </mxCell>
                <mxCell id="Svl1HbeHAaXiKfEnw7dw-77" value="フィン塗装" style="rounded=1;whiteSpace=wrap;html=1;shadow=0;labelBackgroundColor=none;strokeWidth=1;fontFamily=Verdana;fontSize=8;align=center;" parent="Svl1HbeHAaXiKfEnw7dw-73" vertex="1">
                    <mxGeometry x="30" y="430" width="100" height="60" as="geometry"/>
                </mxCell>
                <mxCell id="Svl1HbeHAaXiKfEnw7dw-78" value="8月上旬" style="swimlane;html=1;startSize=20;dashed=1;dashPattern=1 2;" parent="Svl1HbeHAaXiKfEnw7dw-1" vertex="1">
                    <mxGeometry x="1010" y="20" width="160" height="1260" as="geometry"/>
                </mxCell>
                <mxCell id="Svl1HbeHAaXiKfEnw7dw-79" value="" style="rounded=1;whiteSpace=wrap;html=1;shadow=0;labelBackgroundColor=none;strokeWidth=1;fontFamily=Verdana;fontSize=8;align=center;" parent="Svl1HbeHAaXiKfEnw7dw-78" vertex="1">
                    <mxGeometry x="30" y="640" width="100" height="60" as="geometry"/>
                </mxCell>
                <mxCell id="Svl1HbeHAaXiKfEnw7dw-85" style="edgeStyle=orthogonalEdgeStyle;rounded=0;orthogonalLoop=1;jettySize=auto;html=1;entryX=0;entryY=0.5;entryDx=0;entryDy=0;" parent="Svl1HbeHAaXiKfEnw7dw-1" source="Svl1HbeHAaXiKfEnw7dw-52" target="Svl1HbeHAaXiKfEnw7dw-57" edge="1">
                    <mxGeometry relative="1" as="geometry"/>
                </mxCell>
                <mxCell id="Svl1HbeHAaXiKfEnw7dw-86" style="edgeStyle=orthogonalEdgeStyle;rounded=0;orthogonalLoop=1;jettySize=auto;html=1;" parent="Svl1HbeHAaXiKfEnw7dw-1" source="Svl1HbeHAaXiKfEnw7dw-57" target="Svl1HbeHAaXiKfEnw7dw-67" edge="1">
                    <mxGeometry relative="1" as="geometry">
                        <Array as="points">
                            <mxPoint x="610" y="140"/>
                        </Array>
                    </mxGeometry>
                </mxCell>
                <mxCell id="Svl1HbeHAaXiKfEnw7dw-88" style="edgeStyle=orthogonalEdgeStyle;rounded=0;orthogonalLoop=1;jettySize=auto;html=1;entryX=0;entryY=0.5;entryDx=0;entryDy=0;flowAnimation=0;" parent="Svl1HbeHAaXiKfEnw7dw-1" edge="1">
                    <mxGeometry relative="1" as="geometry">
                        <Array as="points">
                            <mxPoint x="70" y="365"/>
                        </Array>
                        <mxPoint x="190" y="365" as="targetPoint"/>
                    </mxGeometry>
                </mxCell>
                <mxCell id="Svl1HbeHAaXiKfEnw7dw-93" style="edgeStyle=orthogonalEdgeStyle;rounded=0;orthogonalLoop=1;jettySize=auto;html=1;" parent="Svl1HbeHAaXiKfEnw7dw-1" source="Svl1HbeHAaXiKfEnw7dw-62" target="Svl1HbeHAaXiKfEnw7dw-76" edge="1">
                    <mxGeometry relative="1" as="geometry"/>
                </mxCell>
                <mxCell id="Svl1HbeHAaXiKfEnw7dw-94" style="edgeStyle=orthogonalEdgeStyle;rounded=0;orthogonalLoop=1;jettySize=auto;html=1;entryX=0;entryY=0.5;entryDx=0;entryDy=0;" parent="Svl1HbeHAaXiKfEnw7dw-1" source="Svl1HbeHAaXiKfEnw7dw-40" target="Svl1HbeHAaXiKfEnw7dw-56" edge="1">
                    <mxGeometry relative="1" as="geometry"/>
                </mxCell>
                <mxCell id="Svl1HbeHAaXiKfEnw7dw-96" style="edgeStyle=orthogonalEdgeStyle;rounded=0;orthogonalLoop=1;jettySize=auto;html=1;entryX=0;entryY=0.5;entryDx=0;entryDy=0;" parent="Svl1HbeHAaXiKfEnw7dw-1" source="Svl1HbeHAaXiKfEnw7dw-21" target="Svl1HbeHAaXiKfEnw7dw-44" edge="1">
                    <mxGeometry relative="1" as="geometry"/>
                </mxCell>
                <mxCell id="Svl1HbeHAaXiKfEnw7dw-100" style="edgeStyle=orthogonalEdgeStyle;rounded=0;orthogonalLoop=1;jettySize=auto;html=1;entryX=0;entryY=0.5;entryDx=0;entryDy=0;" parent="Svl1HbeHAaXiKfEnw7dw-1" source="Svl1HbeHAaXiKfEnw7dw-18" target="Svl1HbeHAaXiKfEnw7dw-42" edge="1">
                    <mxGeometry relative="1" as="geometry"/>
                </mxCell>
                <mxCell id="Svl1HbeHAaXiKfEnw7dw-101" style="edgeStyle=orthogonalEdgeStyle;rounded=0;orthogonalLoop=1;jettySize=auto;html=1;entryX=0;entryY=0.5;entryDx=0;entryDy=0;" parent="Svl1HbeHAaXiKfEnw7dw-1" source="Svl1HbeHAaXiKfEnw7dw-63" target="Svl1HbeHAaXiKfEnw7dw-72" edge="1">
                    <mxGeometry relative="1" as="geometry"/>
                </mxCell>
                <mxCell id="Svl1HbeHAaXiKfEnw7dw-102" style="edgeStyle=orthogonalEdgeStyle;rounded=0;orthogonalLoop=1;jettySize=auto;html=1;" parent="Svl1HbeHAaXiKfEnw7dw-1" source="Svl1HbeHAaXiKfEnw7dw-72" target="Svl1HbeHAaXiKfEnw7dw-77" edge="1">
                    <mxGeometry relative="1" as="geometry"/>
                </mxCell>
                <mxCell id="Svl1HbeHAaXiKfEnw7dw-103" style="edgeStyle=orthogonalEdgeStyle;rounded=0;orthogonalLoop=1;jettySize=auto;html=1;entryX=0;entryY=0.5;entryDx=0;entryDy=0;" parent="Svl1HbeHAaXiKfEnw7dw-1" source="Svl1HbeHAaXiKfEnw7dw-45" target="Svl1HbeHAaXiKfEnw7dw-64" edge="1">
                    <mxGeometry relative="1" as="geometry"/>
                </mxCell>
                <mxCell id="Svl1HbeHAaXiKfEnw7dw-110" style="edgeStyle=orthogonalEdgeStyle;rounded=0;orthogonalLoop=1;jettySize=auto;html=1;entryX=0;entryY=0.5;entryDx=0;entryDy=0;" parent="Svl1HbeHAaXiKfEnw7dw-1" source="Svl1HbeHAaXiKfEnw7dw-42" target="Svl1HbeHAaXiKfEnw7dw-53" edge="1">
                    <mxGeometry relative="1" as="geometry">
                        <mxPoint x="680" y="1060" as="targetPoint"/>
                    </mxGeometry>
                </mxCell>
                <mxCell id="Svl1HbeHAaXiKfEnw7dw-112" style="edgeStyle=orthogonalEdgeStyle;rounded=0;orthogonalLoop=1;jettySize=auto;html=1;" parent="Svl1HbeHAaXiKfEnw7dw-1" source="Svl1HbeHAaXiKfEnw7dw-32" target="Svl1HbeHAaXiKfEnw7dw-54" edge="1">
                    <mxGeometry relative="1" as="geometry"/>
                </mxCell>
                <mxCell id="Svl1HbeHAaXiKfEnw7dw-114" style="edgeStyle=orthogonalEdgeStyle;rounded=0;orthogonalLoop=1;jettySize=auto;html=1;entryX=0;entryY=0.5;entryDx=0;entryDy=0;" parent="Svl1HbeHAaXiKfEnw7dw-1" source="Svl1HbeHAaXiKfEnw7dw-24" target="Svl1HbeHAaXiKfEnw7dw-45" edge="1">
                    <mxGeometry relative="1" as="geometry"/>
                </mxCell>
                <mxCell id="UPXuh7KAjXibafU46sPU-1" style="edgeStyle=orthogonalEdgeStyle;rounded=0;orthogonalLoop=1;jettySize=auto;html=1;entryX=0;entryY=0.5;entryDx=0;entryDy=0;" parent="Svl1HbeHAaXiKfEnw7dw-1" source="Svl1HbeHAaXiKfEnw7dw-15" target="Svl1HbeHAaXiKfEnw7dw-30" edge="1">
                    <mxGeometry relative="1" as="geometry"/>
                </mxCell>
                <mxCell id="UPXuh7KAjXibafU46sPU-7" style="edgeStyle=orthogonalEdgeStyle;rounded=0;orthogonalLoop=1;jettySize=auto;html=1;entryX=0;entryY=0.5;entryDx=0;entryDy=0;" parent="Svl1HbeHAaXiKfEnw7dw-1" source="Svl1HbeHAaXiKfEnw7dw-67" target="Svl1HbeHAaXiKfEnw7dw-74" edge="1">
                    <mxGeometry relative="1" as="geometry"/>
                </mxCell>
                <mxCell id="UPXuh7KAjXibafU46sPU-8" style="edgeStyle=orthogonalEdgeStyle;rounded=0;orthogonalLoop=1;jettySize=auto;html=1;" parent="Svl1HbeHAaXiKfEnw7dw-1" source="Svl1HbeHAaXiKfEnw7dw-49" target="Svl1HbeHAaXiKfEnw7dw-60" edge="1">
                    <mxGeometry relative="1" as="geometry"/>
                </mxCell>
                <mxCell id="Svl1HbeHAaXiKfEnw7dw-3" style="edgeStyle=orthogonalEdgeStyle;rounded=1;html=1;labelBackgroundColor=none;startArrow=none;startFill=0;startSize=5;endArrow=classicThin;endFill=1;endSize=5;jettySize=auto;orthogonalLoop=1;strokeWidth=1;fontFamily=Verdana;fontSize=8" parent="Svl1HbeHAaXiKfEnw7dw-1" source="Svl1HbeHAaXiKfEnw7dw-31" target="Svl1HbeHAaXiKfEnw7dw-39" edge="1">
                    <mxGeometry relative="1" as="geometry"/>
                </mxCell>
                <mxCell id="Svl1HbeHAaXiKfEnw7dw-111" style="edgeStyle=orthogonalEdgeStyle;rounded=0;orthogonalLoop=1;jettySize=auto;html=1;entryX=0.25;entryY=0;entryDx=0;entryDy=0;" parent="Svl1HbeHAaXiKfEnw7dw-1" source="Svl1HbeHAaXiKfEnw7dw-30" target="Svl1HbeHAaXiKfEnw7dw-45" edge="1">
                    <mxGeometry relative="1" as="geometry"/>
                </mxCell>
                <mxCell id="3" style="edgeStyle=none;html=1;entryX=0;entryY=0.25;entryDx=0;entryDy=0;" parent="Svl1HbeHAaXiKfEnw7dw-1" source="Svl1HbeHAaXiKfEnw7dw-37" target="Svl1HbeHAaXiKfEnw7dw-54" edge="1">
                    <mxGeometry relative="1" as="geometry"/>
                </mxCell>
                <mxCell id="5" value="" style="edgeStyle=none;html=1;" parent="Svl1HbeHAaXiKfEnw7dw-1" source="Svl1HbeHAaXiKfEnw7dw-16" target="4" edge="1">
                    <mxGeometry relative="1" as="geometry"/>
                </mxCell>
                <mxCell id="6" style="edgeStyle=none;html=1;entryX=0;entryY=0.5;entryDx=0;entryDy=0;" parent="Svl1HbeHAaXiKfEnw7dw-1" source="4" target="Svl1HbeHAaXiKfEnw7dw-69" edge="1">
                    <mxGeometry relative="1" as="geometry"/>
                </mxCell>
                <mxCell id="UPXuh7KAjXibafU46sPU-3" style="edgeStyle=orthogonalEdgeStyle;rounded=0;orthogonalLoop=1;jettySize=auto;html=1;" parent="Svl1HbeHAaXiKfEnw7dw-1" source="Svl1HbeHAaXiKfEnw7dw-27" target="Svl1HbeHAaXiKfEnw7dw-34" edge="1">
                    <mxGeometry relative="1" as="geometry"/>
                </mxCell>
            </root>
        </mxGraphModel>
    </diagram>
    <diagram name="制作フローのコピー" id="rlYh3Gm1J3w3a0prd2vp">
        <mxGraphModel grid="1" page="1" gridSize="10" guides="1" tooltips="1" connect="1" arrows="1" fold="1" pageScale="1" pageWidth="827" pageHeight="1169" math="0" shadow="0">
            <root>
                <mxCell id="Mc50w4lBMcDeLSj56KUi-0"/>
                <mxCell id="Mc50w4lBMcDeLSj56KUi-1" parent="Mc50w4lBMcDeLSj56KUi-0"/>
                <mxCell id="Mc50w4lBMcDeLSj56KUi-2" value="Pool" style="swimlane;html=1;childLayout=stackLayout;startSize=20;rounded=0;shadow=0;labelBackgroundColor=none;strokeWidth=2;fontFamily=Verdana;fontSize=8;align=center;" vertex="1" parent="Mc50w4lBMcDeLSj56KUi-1">
                    <mxGeometry x="-110" y="120" width="1360" height="1280" as="geometry"/>
                </mxCell>
                <mxCell id="Mc50w4lBMcDeLSj56KUi-3" value="5月上旬" style="swimlane;html=1;startSize=20;dashed=1;strokeWidth=1;dashPattern=1 2;" vertex="1" parent="Mc50w4lBMcDeLSj56KUi-2">
                    <mxGeometry y="20" width="170" height="1260" as="geometry"/>
                </mxCell>
                <mxCell id="Mc50w4lBMcDeLSj56KUi-4" value="マイコン・確定部品発注" style="rounded=1;whiteSpace=wrap;html=1;shadow=0;labelBackgroundColor=none;strokeWidth=1;fontFamily=Verdana;fontSize=8;align=center;" vertex="1" parent="Mc50w4lBMcDeLSj56KUi-3">
                    <mxGeometry y="1080" width="100" height="60" as="geometry"/>
                </mxCell>
                <mxCell id="Mc50w4lBMcDeLSj56KUi-5" value="3軸決定" style="rounded=1;whiteSpace=wrap;html=1;shadow=0;labelBackgroundColor=none;strokeWidth=1;fontFamily=Verdana;fontSize=8;align=center;" vertex="1" parent="Mc50w4lBMcDeLSj56KUi-3">
                    <mxGeometry y="980" width="100" height="60" as="geometry"/>
                </mxCell>
                <mxCell id="Mc50w4lBMcDeLSj56KUi-6" value="分離基盤設計" style="rounded=1;whiteSpace=wrap;html=1;shadow=0;labelBackgroundColor=none;strokeWidth=1;fontFamily=Verdana;fontSize=8;align=center;" vertex="1" parent="Mc50w4lBMcDeLSj56KUi-3">
                    <mxGeometry y="800" width="100" height="60" as="geometry"/>
                </mxCell>
                <mxCell id="Mc50w4lBMcDeLSj56KUi-18" value="機体仮組" style="rounded=1;whiteSpace=wrap;html=1;shadow=0;labelBackgroundColor=none;strokeWidth=1;fontFamily=Verdana;fontSize=8;align=center;" vertex="1" parent="Mc50w4lBMcDeLSj56KUi-3">
                    <mxGeometry x="30" y="360" width="100" height="60" as="geometry"/>
                </mxCell>
                <mxCell id="Mc50w4lBMcDeLSj56KUi-7" value="5月下旬" style="swimlane;html=1;startSize=20;dashed=1;dashPattern=1 2;" vertex="1" parent="Mc50w4lBMcDeLSj56KUi-2">
                    <mxGeometry x="170" y="20" width="190" height="1260" as="geometry"/>
                </mxCell>
                <mxCell id="Mc50w4lBMcDeLSj56KUi-8" value="新入生教育・回路量産" style="rounded=1;whiteSpace=wrap;html=1;shadow=0;labelBackgroundColor=none;strokeWidth=1;fontFamily=Verdana;fontSize=8;align=center;" vertex="1" parent="Mc50w4lBMcDeLSj56KUi-7">
                    <mxGeometry x="30" y="1180" width="100" height="60" as="geometry"/>
                </mxCell>
                <mxCell id="Mc50w4lBMcDeLSj56KUi-9" value="実施形態の深掘り" style="rounded=1;whiteSpace=wrap;html=1;shadow=0;labelBackgroundColor=none;strokeWidth=1;fontFamily=Verdana;fontSize=8;align=center;" vertex="1" parent="Mc50w4lBMcDeLSj56KUi-7">
                    <mxGeometry x="30" y="1080" width="100" height="60" as="geometry"/>
                </mxCell>
                <mxCell id="Mc50w4lBMcDeLSj56KUi-10" style="edgeStyle=orthogonalEdgeStyle;rounded=0;orthogonalLoop=1;jettySize=auto;html=1;entryX=0.5;entryY=0;entryDx=0;entryDy=0;" edge="1" parent="Mc50w4lBMcDeLSj56KUi-7" source="Mc50w4lBMcDeLSj56KUi-9" target="Mc50w4lBMcDeLSj56KUi-8">
                    <mxGeometry relative="1" as="geometry">
                        <Array as="points">
                            <mxPoint x="80" y="1090"/>
                            <mxPoint x="140" y="1090"/>
                        </Array>
                    </mxGeometry>
                </mxCell>
                <mxCell id="Mc50w4lBMcDeLSj56KUi-13" value="金属部品発注" style="rounded=1;whiteSpace=wrap;html=1;shadow=0;labelBackgroundColor=none;strokeWidth=1;fontFamily=Verdana;fontSize=8;align=center;" vertex="1" parent="Mc50w4lBMcDeLSj56KUi-7">
                    <mxGeometry x="90" y="630" width="100" height="60" as="geometry"/>
                </mxCell>
                <mxCell id="Mc50w4lBMcDeLSj56KUi-15" value="デザイン" style="rounded=1;whiteSpace=wrap;html=1;shadow=0;labelBackgroundColor=none;strokeWidth=1;fontFamily=Verdana;fontSize=8;align=center;" vertex="1" parent="Mc50w4lBMcDeLSj56KUi-7">
                    <mxGeometry x="90" y="440" width="100" height="60" as="geometry"/>
                </mxCell>
                <mxCell id="B1jrbHe4EjJ4HCNdL6lR-2" value="電装タワー決定" style="rounded=1;whiteSpace=wrap;html=1;shadow=0;labelBackgroundColor=none;strokeWidth=1;fontFamily=Verdana;fontSize=8;align=center;" vertex="1" parent="Mc50w4lBMcDeLSj56KUi-7">
                    <mxGeometry x="130" y="710" width="100" height="60" as="geometry"/>
                </mxCell>
                <mxCell id="Mc50w4lBMcDeLSj56KUi-40" value="重心計測" style="rounded=1;whiteSpace=wrap;html=1;shadow=0;labelBackgroundColor=none;strokeWidth=1;fontFamily=Verdana;fontSize=8;align=center;" vertex="1" parent="Mc50w4lBMcDeLSj56KUi-7">
                    <mxGeometry x="45" y="360" width="100" height="60" as="geometry"/>
                </mxCell>
                <mxCell id="Mc50w4lBMcDeLSj56KUi-17" value="6月上旬" style="swimlane;html=1;startSize=20;dashed=1;dashPattern=1 2;" vertex="1" parent="Mc50w4lBMcDeLSj56KUi-2">
                    <mxGeometry x="360" y="20" width="260" height="1260" as="geometry"/>
                </mxCell>
                <mxCell id="Mc50w4lBMcDeLSj56KUi-19" style="edgeStyle=orthogonalEdgeStyle;rounded=0;orthogonalLoop=1;jettySize=auto;html=1;entryX=0;entryY=0.5;entryDx=0;entryDy=0;" edge="1" parent="Mc50w4lBMcDeLSj56KUi-17" source="Mc50w4lBMcDeLSj56KUi-20" target="Mc50w4lBMcDeLSj56KUi-21">
                    <mxGeometry relative="1" as="geometry"/>
                </mxCell>
                <mxCell id="Mc50w4lBMcDeLSj56KUi-20" value="第1次審査書期（期末後）" style="rounded=1;whiteSpace=wrap;html=1;shadow=0;labelBackgroundColor=none;strokeWidth=1;fontFamily=Verdana;fontSize=8;align=center;" vertex="1" parent="Mc50w4lBMcDeLSj56KUi-17">
                    <mxGeometry x="-60" y="90" width="190" height="60" as="geometry"/>
                </mxCell>
                <mxCell id="Mc50w4lBMcDeLSj56KUi-21" value="プレ" style="rounded=1;whiteSpace=wrap;html=1;shadow=0;labelBackgroundColor=none;strokeWidth=1;fontFamily=Verdana;fontSize=8;align=center;" vertex="1" parent="Mc50w4lBMcDeLSj56KUi-17">
                    <mxGeometry x="120" y="30" width="20" height="60" as="geometry"/>
                </mxCell>
                <mxCell id="Mc50w4lBMcDeLSj56KUi-22" value="追加発注" style="rounded=1;whiteSpace=wrap;html=1;shadow=0;labelBackgroundColor=none;strokeWidth=1;fontFamily=Verdana;fontSize=8;align=center;" vertex="1" parent="Mc50w4lBMcDeLSj56KUi-17">
                    <mxGeometry x="30" y="1080" width="100" height="60" as="geometry"/>
                </mxCell>
                <mxCell id="Mc50w4lBMcDeLSj56KUi-23" value="チューブ塗装" style="rounded=1;whiteSpace=wrap;html=1;shadow=0;labelBackgroundColor=none;strokeWidth=1;fontFamily=Verdana;fontSize=8;align=center;" vertex="1" parent="Mc50w4lBMcDeLSj56KUi-17">
                    <mxGeometry x="160" y="520" width="100" height="60" as="geometry"/>
                </mxCell>
                <mxCell id="Mc50w4lBMcDeLSj56KUi-24" value="金属加工" style="rounded=1;whiteSpace=wrap;html=1;shadow=0;labelBackgroundColor=none;strokeWidth=1;fontFamily=Verdana;fontSize=8;align=center;" vertex="1" parent="Mc50w4lBMcDeLSj56KUi-17">
                    <mxGeometry x="150" y="630" width="100" height="60" as="geometry"/>
                </mxCell>
                <mxCell id="Mc50w4lBMcDeLSj56KUi-25" value="モジュール結合・試験" style="rounded=1;whiteSpace=wrap;html=1;shadow=0;labelBackgroundColor=none;strokeWidth=1;fontFamily=Verdana;fontSize=8;align=center;" vertex="1" parent="Mc50w4lBMcDeLSj56KUi-17">
                    <mxGeometry x="160" y="880" width="100" height="60" as="geometry"/>
                </mxCell>
                <mxCell id="Mc50w4lBMcDeLSj56KUi-26" value="電装タワー制作" style="rounded=1;whiteSpace=wrap;html=1;shadow=0;labelBackgroundColor=none;strokeWidth=1;fontFamily=Verdana;fontSize=8;align=center;" vertex="1" parent="Mc50w4lBMcDeLSj56KUi-17">
                    <mxGeometry x="150" y="710" width="100" height="60" as="geometry"/>
                </mxCell>
                <mxCell id="Mc50w4lBMcDeLSj56KUi-27" value="" style="edgeStyle=orthogonalEdgeStyle;rounded=0;orthogonalLoop=1;jettySize=auto;html=1;" edge="1" parent="Mc50w4lBMcDeLSj56KUi-17" source="Mc50w4lBMcDeLSj56KUi-24" target="Mc50w4lBMcDeLSj56KUi-26">
                    <mxGeometry relative="1" as="geometry"/>
                </mxCell>
                <mxCell id="Mc50w4lBMcDeLSj56KUi-28" style="edgeStyle=orthogonalEdgeStyle;rounded=0;orthogonalLoop=1;jettySize=auto;html=1;entryX=0.5;entryY=0;entryDx=0;entryDy=0;" edge="1" parent="Mc50w4lBMcDeLSj56KUi-17" source="Mc50w4lBMcDeLSj56KUi-26" target="Mc50w4lBMcDeLSj56KUi-25">
                    <mxGeometry relative="1" as="geometry">
                        <mxPoint x="50" y="710" as="targetPoint"/>
                        <Array as="points">
                            <mxPoint x="200" y="780"/>
                            <mxPoint x="210" y="780"/>
                        </Array>
                    </mxGeometry>
                </mxCell>
                <mxCell id="Mc50w4lBMcDeLSj56KUi-29" value="歓迎ご飯" style="rounded=1;whiteSpace=wrap;html=1;shadow=0;labelBackgroundColor=none;strokeWidth=1;fontFamily=Verdana;fontSize=8;align=center;" vertex="1" parent="Mc50w4lBMcDeLSj56KUi-17">
                    <mxGeometry y="1170" width="100" height="60" as="geometry"/>
                </mxCell>
                <mxCell id="Mc50w4lBMcDeLSj56KUi-30" style="edgeStyle=none;html=1;" edge="1" parent="Mc50w4lBMcDeLSj56KUi-17" source="Mc50w4lBMcDeLSj56KUi-31" target="Mc50w4lBMcDeLSj56KUi-25">
                    <mxGeometry relative="1" as="geometry"/>
                </mxCell>
                <mxCell id="Mc50w4lBMcDeLSj56KUi-31" value="3軸成功" style="rounded=1;whiteSpace=wrap;html=1;shadow=0;labelBackgroundColor=none;strokeWidth=1;fontFamily=Verdana;fontSize=8;align=center;" vertex="1" parent="Mc50w4lBMcDeLSj56KUi-17">
                    <mxGeometry x="160" y="980" width="100" height="60" as="geometry"/>
                </mxCell>
                <mxCell id="Mc50w4lBMcDeLSj56KUi-32" value="ロードセル箱・基盤" style="rounded=1;whiteSpace=wrap;html=1;shadow=0;labelBackgroundColor=none;strokeWidth=1;fontFamily=Verdana;fontSize=8;align=center;" vertex="1" parent="Mc50w4lBMcDeLSj56KUi-17">
                    <mxGeometry y="230" width="100" height="60" as="geometry"/>
                </mxCell>
                <mxCell id="Mc50w4lBMcDeLSj56KUi-33" value="分離組み立て" style="rounded=1;whiteSpace=wrap;html=1;shadow=0;labelBackgroundColor=none;strokeWidth=1;fontFamily=Verdana;fontSize=8;align=center;" vertex="1" parent="Mc50w4lBMcDeLSj56KUi-17">
                    <mxGeometry x="130" y="315" width="100" height="60" as="geometry"/>
                </mxCell>
                <mxCell id="Mc50w4lBMcDeLSj56KUi-12" value="本番プリント" style="rounded=1;whiteSpace=wrap;html=1;shadow=0;labelBackgroundColor=none;strokeWidth=1;fontFamily=Verdana;fontSize=8;align=center;" vertex="1" parent="Mc50w4lBMcDeLSj56KUi-17">
                    <mxGeometry y="315" width="100" height="60" as="geometry"/>
                </mxCell>
                <mxCell id="Mc50w4lBMcDeLSj56KUi-82" style="edgeStyle=orthogonalEdgeStyle;rounded=0;orthogonalLoop=1;jettySize=auto;html=1;" edge="1" parent="Mc50w4lBMcDeLSj56KUi-17" source="Mc50w4lBMcDeLSj56KUi-12" target="Mc50w4lBMcDeLSj56KUi-33">
                    <mxGeometry relative="1" as="geometry"/>
                </mxCell>
                <mxCell id="Mc50w4lBMcDeLSj56KUi-11" value="電装プレート発注" style="rounded=1;whiteSpace=wrap;html=1;shadow=0;labelBackgroundColor=none;strokeWidth=1;fontFamily=Verdana;fontSize=8;align=center;" vertex="1" parent="Mc50w4lBMcDeLSj56KUi-17">
                    <mxGeometry x="-50" y="800" width="100" height="60" as="geometry"/>
                </mxCell>
                <mxCell id="Mc50w4lBMcDeLSj56KUi-78" style="edgeStyle=orthogonalEdgeStyle;rounded=0;orthogonalLoop=1;jettySize=auto;html=1;entryX=0.25;entryY=0;entryDx=0;entryDy=0;" edge="1" parent="Mc50w4lBMcDeLSj56KUi-17" source="Mc50w4lBMcDeLSj56KUi-11" target="Mc50w4lBMcDeLSj56KUi-25">
                    <mxGeometry relative="1" as="geometry"/>
                </mxCell>
                <mxCell id="Mc50w4lBMcDeLSj56KUi-14" value="ES成功" style="rounded=1;whiteSpace=wrap;html=1;shadow=0;labelBackgroundColor=none;strokeWidth=1;fontFamily=Verdana;fontSize=8;align=center;" vertex="1" parent="Mc50w4lBMcDeLSj56KUi-17">
                    <mxGeometry y="880" width="100" height="60" as="geometry"/>
                </mxCell>
                <mxCell id="Mc50w4lBMcDeLSj56KUi-73" style="edgeStyle=orthogonalEdgeStyle;rounded=0;orthogonalLoop=1;jettySize=auto;html=1;entryX=0;entryY=0.5;entryDx=0;entryDy=0;" edge="1" parent="Mc50w4lBMcDeLSj56KUi-17" source="Mc50w4lBMcDeLSj56KUi-14" target="Mc50w4lBMcDeLSj56KUi-25">
                    <mxGeometry relative="1" as="geometry"/>
                </mxCell>
                <mxCell id="B1jrbHe4EjJ4HCNdL6lR-6" style="edgeStyle=none;html=1;entryX=0;entryY=0.5;entryDx=0;entryDy=0;" edge="1" parent="Mc50w4lBMcDeLSj56KUi-17" source="Mc50w4lBMcDeLSj56KUi-16" target="Mc50w4lBMcDeLSj56KUi-23">
                    <mxGeometry relative="1" as="geometry"/>
                </mxCell>
                <mxCell id="Mc50w4lBMcDeLSj56KUi-16" value="チューブ穴空け" style="rounded=1;whiteSpace=wrap;html=1;shadow=0;labelBackgroundColor=none;strokeWidth=1;fontFamily=Verdana;fontSize=8;align=center;" vertex="1" parent="Mc50w4lBMcDeLSj56KUi-17">
                    <mxGeometry x="-90" y="520" width="210" height="60" as="geometry"/>
                </mxCell>
                <mxCell id="Mc50w4lBMcDeLSj56KUi-35" value="6月下旬" style="swimlane;html=1;startSize=20;dashed=1;dashPattern=1 2;" vertex="1" parent="Mc50w4lBMcDeLSj56KUi-2">
                    <mxGeometry x="620" y="20" width="260" height="1260" as="geometry"/>
                </mxCell>
                <mxCell id="Mc50w4lBMcDeLSj56KUi-36" value="新入生教育" style="rounded=1;whiteSpace=wrap;html=1;shadow=0;labelBackgroundColor=none;strokeWidth=1;fontFamily=Verdana;fontSize=8;align=center;" vertex="1" parent="Mc50w4lBMcDeLSj56KUi-35">
                    <mxGeometry x="30" y="1170" width="100" height="60" as="geometry"/>
                </mxCell>
                <mxCell id="Mc50w4lBMcDeLSj56KUi-37" value="1st" style="rounded=1;whiteSpace=wrap;html=1;shadow=0;labelBackgroundColor=none;strokeWidth=1;fontFamily=Verdana;fontSize=8;align=center;" vertex="1" parent="Mc50w4lBMcDeLSj56KUi-35">
                    <mxGeometry x="120" y="30" width="20" height="60" as="geometry"/>
                </mxCell>
                <mxCell id="Mc50w4lBMcDeLSj56KUi-41" style="edgeStyle=orthogonalEdgeStyle;rounded=0;orthogonalLoop=1;jettySize=auto;html=1;" edge="1" parent="Mc50w4lBMcDeLSj56KUi-35" source="Mc50w4lBMcDeLSj56KUi-42">
                    <mxGeometry relative="1" as="geometry">
                        <mxPoint x="50" y="60" as="targetPoint"/>
                        <Array as="points">
                            <mxPoint x="50" y="90"/>
                            <mxPoint x="50" y="90"/>
                        </Array>
                    </mxGeometry>
                </mxCell>
                <mxCell id="Mc50w4lBMcDeLSj56KUi-42" value="第2次シミュレーション" style="rounded=1;whiteSpace=wrap;html=1;shadow=0;labelBackgroundColor=none;strokeWidth=1;fontFamily=Verdana;fontSize=8;align=center;" vertex="1" parent="Mc50w4lBMcDeLSj56KUi-35">
                    <mxGeometry x="30" y="160" width="100" height="60" as="geometry"/>
                </mxCell>
                <mxCell id="Mc50w4lBMcDeLSj56KUi-43" value="フィン決定" style="rounded=1;whiteSpace=wrap;html=1;shadow=0;labelBackgroundColor=none;strokeWidth=1;fontFamily=Verdana;fontSize=8;align=center;" vertex="1" parent="Mc50w4lBMcDeLSj56KUi-35">
                    <mxGeometry x="150" y="370" width="100" height="60" as="geometry"/>
                </mxCell>
                <mxCell id="Mc50w4lBMcDeLSj56KUi-44" value="回路完成" style="rounded=1;whiteSpace=wrap;html=1;shadow=0;labelBackgroundColor=none;strokeWidth=1;fontFamily=Verdana;fontSize=8;align=center;" vertex="1" parent="Mc50w4lBMcDeLSj56KUi-35">
                    <mxGeometry x="30" y="880" width="100" height="60" as="geometry"/>
                </mxCell>
                <mxCell id="Mc50w4lBMcDeLSj56KUi-45" value="地上燃焼試験1st" style="rounded=1;whiteSpace=wrap;html=1;shadow=0;labelBackgroundColor=none;strokeWidth=1;fontFamily=Verdana;fontSize=8;align=center;" vertex="1" parent="Mc50w4lBMcDeLSj56KUi-35">
                    <mxGeometry x="60" y="230" width="100" height="60" as="geometry"/>
                </mxCell>
                <mxCell id="Mc50w4lBMcDeLSj56KUi-46" value="7月上旬" style="swimlane;html=1;startSize=20;dashed=1;dashPattern=1 2;" vertex="1" parent="Mc50w4lBMcDeLSj56KUi-2">
                    <mxGeometry x="880" y="20" width="160" height="1260" as="geometry"/>
                </mxCell>
                <mxCell id="Mc50w4lBMcDeLSj56KUi-47" style="edgeStyle=orthogonalEdgeStyle;rounded=0;orthogonalLoop=1;jettySize=auto;html=1;entryX=0;entryY=0.5;entryDx=0;entryDy=0;" edge="1" parent="Mc50w4lBMcDeLSj56KUi-46" source="Mc50w4lBMcDeLSj56KUi-48" target="Mc50w4lBMcDeLSj56KUi-51">
                    <mxGeometry relative="1" as="geometry">
                        <Array as="points">
                            <mxPoint x="30" y="98"/>
                        </Array>
                    </mxGeometry>
                </mxCell>
                <mxCell id="Mc50w4lBMcDeLSj56KUi-48" value="第2&lt;span style=&quot;background-color: transparent; color: light-dark(rgb(0, 0, 0), rgb(255, 255, 255));&quot;&gt;次審査書&lt;/span&gt;期&lt;span style=&quot;background-color: transparent; color: light-dark(rgb(0, 0, 0), rgb(255, 255, 255));&quot;&gt;（期末後）&lt;/span&gt;" style="rounded=1;whiteSpace=wrap;html=1;shadow=0;labelBackgroundColor=none;strokeWidth=1;fontFamily=Verdana;fontSize=8;align=center;" vertex="1" parent="Mc50w4lBMcDeLSj56KUi-46">
                    <mxGeometry x="-40" y="90" width="150" height="60" as="geometry"/>
                </mxCell>
                <mxCell id="Mc50w4lBMcDeLSj56KUi-49" style="edgeStyle=orthogonalEdgeStyle;rounded=0;orthogonalLoop=1;jettySize=auto;html=1;" edge="1" parent="Mc50w4lBMcDeLSj56KUi-46" source="Mc50w4lBMcDeLSj56KUi-50">
                    <mxGeometry relative="1" as="geometry">
                        <mxPoint x="79.99999999999977" y="190" as="targetPoint"/>
                    </mxGeometry>
                </mxCell>
                <mxCell id="Mc50w4lBMcDeLSj56KUi-50" value="地上燃焼試験2nd" style="rounded=1;whiteSpace=wrap;html=1;shadow=0;labelBackgroundColor=none;strokeWidth=1;fontFamily=Verdana;fontSize=8;align=center;" vertex="1" parent="Mc50w4lBMcDeLSj56KUi-46">
                    <mxGeometry x="60" y="230" width="100" height="60" as="geometry"/>
                </mxCell>
                <mxCell id="Mc50w4lBMcDeLSj56KUi-51" value="2nd" style="rounded=1;whiteSpace=wrap;html=1;shadow=0;labelBackgroundColor=none;strokeWidth=1;fontFamily=Verdana;fontSize=8;align=center;" vertex="1" parent="Mc50w4lBMcDeLSj56KUi-46">
                    <mxGeometry x="70" y="30" width="20" height="60" as="geometry"/>
                </mxCell>
                <mxCell id="Mc50w4lBMcDeLSj56KUi-52" style="edgeStyle=orthogonalEdgeStyle;rounded=0;orthogonalLoop=1;jettySize=auto;html=1;entryX=1;entryY=0.25;entryDx=0;entryDy=0;" edge="1" parent="Mc50w4lBMcDeLSj56KUi-46" source="Mc50w4lBMcDeLSj56KUi-51" target="Mc50w4lBMcDeLSj56KUi-48">
                    <mxGeometry relative="1" as="geometry">
                        <Array as="points">
                            <mxPoint x="130" y="60"/>
                            <mxPoint x="130" y="105"/>
                        </Array>
                    </mxGeometry>
                </mxCell>
                <mxCell id="Mc50w4lBMcDeLSj56KUi-53" value="フィン制作*4^3" style="rounded=1;whiteSpace=wrap;html=1;shadow=0;labelBackgroundColor=none;strokeWidth=1;fontFamily=Verdana;fontSize=8;align=center;" vertex="1" parent="Mc50w4lBMcDeLSj56KUi-46">
                    <mxGeometry x="30" y="370" width="100" height="60" as="geometry"/>
                </mxCell>
                <mxCell id="Mc50w4lBMcDeLSj56KUi-54" value="7月下旬" style="swimlane;html=1;startSize=20;dashed=1;dashPattern=1 2;" vertex="1" parent="Mc50w4lBMcDeLSj56KUi-2">
                    <mxGeometry x="1040" y="20" width="160" height="1260" as="geometry"/>
                </mxCell>
                <mxCell id="Mc50w4lBMcDeLSj56KUi-55" value="3rd" style="rounded=1;whiteSpace=wrap;html=1;shadow=0;labelBackgroundColor=none;strokeWidth=1;fontFamily=Verdana;fontSize=8;align=center;" vertex="1" parent="Mc50w4lBMcDeLSj56KUi-54">
                    <mxGeometry x="70" y="30" width="20" height="60" as="geometry"/>
                </mxCell>
                <mxCell id="Mc50w4lBMcDeLSj56KUi-56" style="edgeStyle=orthogonalEdgeStyle;rounded=0;orthogonalLoop=1;jettySize=auto;html=1;" edge="1" parent="Mc50w4lBMcDeLSj56KUi-54" source="Mc50w4lBMcDeLSj56KUi-57" target="Mc50w4lBMcDeLSj56KUi-55">
                    <mxGeometry relative="1" as="geometry"/>
                </mxCell>
                <mxCell id="Mc50w4lBMcDeLSj56KUi-57" value="第3&lt;span style=&quot;background-color: transparent; color: light-dark(rgb(0, 0, 0), rgb(255, 255, 255));&quot;&gt;次シミュレーション&lt;/span&gt;" style="rounded=1;whiteSpace=wrap;html=1;shadow=0;labelBackgroundColor=none;strokeWidth=1;fontFamily=Verdana;fontSize=8;align=center;" vertex="1" parent="Mc50w4lBMcDeLSj56KUi-54">
                    <mxGeometry x="30" y="160" width="100" height="60" as="geometry"/>
                </mxCell>
                <mxCell id="Mc50w4lBMcDeLSj56KUi-58" value="フィン塗装" style="rounded=1;whiteSpace=wrap;html=1;shadow=0;labelBackgroundColor=none;strokeWidth=1;fontFamily=Verdana;fontSize=8;align=center;" vertex="1" parent="Mc50w4lBMcDeLSj56KUi-54">
                    <mxGeometry x="30" y="370" width="100" height="60" as="geometry"/>
                </mxCell>
                <mxCell id="Mc50w4lBMcDeLSj56KUi-59" value="8月上旬" style="swimlane;html=1;startSize=20;dashed=1;dashPattern=1 2;" vertex="1" parent="Mc50w4lBMcDeLSj56KUi-2">
                    <mxGeometry x="1200" y="20" width="160" height="1260" as="geometry"/>
                </mxCell>
                <mxCell id="Mc50w4lBMcDeLSj56KUi-60" value="" style="rounded=1;whiteSpace=wrap;html=1;shadow=0;labelBackgroundColor=none;strokeWidth=1;fontFamily=Verdana;fontSize=8;align=center;" vertex="1" parent="Mc50w4lBMcDeLSj56KUi-59">
                    <mxGeometry x="30" y="640" width="100" height="60" as="geometry"/>
                </mxCell>
                <mxCell id="Mc50w4lBMcDeLSj56KUi-61" style="edgeStyle=orthogonalEdgeStyle;rounded=0;orthogonalLoop=1;jettySize=auto;html=1;entryX=0;entryY=0.5;entryDx=0;entryDy=0;" edge="1" parent="Mc50w4lBMcDeLSj56KUi-2" source="Mc50w4lBMcDeLSj56KUi-21" target="Mc50w4lBMcDeLSj56KUi-37">
                    <mxGeometry relative="1" as="geometry"/>
                </mxCell>
                <mxCell id="Mc50w4lBMcDeLSj56KUi-62" style="edgeStyle=orthogonalEdgeStyle;rounded=0;orthogonalLoop=1;jettySize=auto;html=1;" edge="1" parent="Mc50w4lBMcDeLSj56KUi-2" source="Mc50w4lBMcDeLSj56KUi-37" target="Mc50w4lBMcDeLSj56KUi-48">
                    <mxGeometry relative="1" as="geometry">
                        <Array as="points">
                            <mxPoint x="610" y="140"/>
                        </Array>
                    </mxGeometry>
                </mxCell>
                <mxCell id="Mc50w4lBMcDeLSj56KUi-63" style="edgeStyle=orthogonalEdgeStyle;rounded=0;orthogonalLoop=1;jettySize=auto;html=1;entryX=0;entryY=0.5;entryDx=0;entryDy=0;flowAnimation=0;" edge="1" parent="Mc50w4lBMcDeLSj56KUi-2">
                    <mxGeometry relative="1" as="geometry">
                        <Array as="points">
                            <mxPoint x="70" y="365"/>
                        </Array>
                        <mxPoint x="190" y="365" as="targetPoint"/>
                    </mxGeometry>
                </mxCell>
                <mxCell id="Mc50w4lBMcDeLSj56KUi-64" style="edgeStyle=orthogonalEdgeStyle;rounded=0;orthogonalLoop=1;jettySize=auto;html=1;" edge="1" parent="Mc50w4lBMcDeLSj56KUi-2" source="Mc50w4lBMcDeLSj56KUi-42" target="Mc50w4lBMcDeLSj56KUi-57">
                    <mxGeometry relative="1" as="geometry"/>
                </mxCell>
                <mxCell id="Mc50w4lBMcDeLSj56KUi-65" style="edgeStyle=orthogonalEdgeStyle;rounded=0;orthogonalLoop=1;jettySize=auto;html=1;entryX=0;entryY=0.5;entryDx=0;entryDy=0;" edge="1" parent="Mc50w4lBMcDeLSj56KUi-2" source="Mc50w4lBMcDeLSj56KUi-29" target="Mc50w4lBMcDeLSj56KUi-36">
                    <mxGeometry relative="1" as="geometry"/>
                </mxCell>
                <mxCell id="Mc50w4lBMcDeLSj56KUi-66" style="edgeStyle=orthogonalEdgeStyle;rounded=0;orthogonalLoop=1;jettySize=auto;html=1;entryX=0;entryY=0.5;entryDx=0;entryDy=0;" edge="1" parent="Mc50w4lBMcDeLSj56KUi-2" source="Mc50w4lBMcDeLSj56KUi-5" target="Mc50w4lBMcDeLSj56KUi-31">
                    <mxGeometry relative="1" as="geometry"/>
                </mxCell>
                <mxCell id="Mc50w4lBMcDeLSj56KUi-67" style="edgeStyle=orthogonalEdgeStyle;rounded=0;orthogonalLoop=1;jettySize=auto;html=1;entryX=0;entryY=0.5;entryDx=0;entryDy=0;" edge="1" parent="Mc50w4lBMcDeLSj56KUi-2" source="Mc50w4lBMcDeLSj56KUi-4" target="Mc50w4lBMcDeLSj56KUi-9">
                    <mxGeometry relative="1" as="geometry"/>
                </mxCell>
                <mxCell id="Mc50w4lBMcDeLSj56KUi-68" style="edgeStyle=orthogonalEdgeStyle;rounded=0;orthogonalLoop=1;jettySize=auto;html=1;entryX=0;entryY=0.5;entryDx=0;entryDy=0;" edge="1" parent="Mc50w4lBMcDeLSj56KUi-2" source="Mc50w4lBMcDeLSj56KUi-43" target="Mc50w4lBMcDeLSj56KUi-53">
                    <mxGeometry relative="1" as="geometry"/>
                </mxCell>
                <mxCell id="Mc50w4lBMcDeLSj56KUi-69" style="edgeStyle=orthogonalEdgeStyle;rounded=0;orthogonalLoop=1;jettySize=auto;html=1;" edge="1" parent="Mc50w4lBMcDeLSj56KUi-2" source="Mc50w4lBMcDeLSj56KUi-53" target="Mc50w4lBMcDeLSj56KUi-58">
                    <mxGeometry relative="1" as="geometry"/>
                </mxCell>
                <mxCell id="Mc50w4lBMcDeLSj56KUi-70" style="edgeStyle=orthogonalEdgeStyle;rounded=0;orthogonalLoop=1;jettySize=auto;html=1;entryX=0;entryY=0.5;entryDx=0;entryDy=0;" edge="1" parent="Mc50w4lBMcDeLSj56KUi-2" source="Mc50w4lBMcDeLSj56KUi-25" target="Mc50w4lBMcDeLSj56KUi-44">
                    <mxGeometry relative="1" as="geometry"/>
                </mxCell>
                <mxCell id="Mc50w4lBMcDeLSj56KUi-71" style="edgeStyle=orthogonalEdgeStyle;rounded=0;orthogonalLoop=1;jettySize=auto;html=1;entryX=0;entryY=0.5;entryDx=0;entryDy=0;" edge="1" parent="Mc50w4lBMcDeLSj56KUi-2" source="Mc50w4lBMcDeLSj56KUi-9" target="Mc50w4lBMcDeLSj56KUi-22">
                    <mxGeometry relative="1" as="geometry">
                        <mxPoint x="680" y="1060" as="targetPoint"/>
                    </mxGeometry>
                </mxCell>
                <mxCell id="Mc50w4lBMcDeLSj56KUi-72" style="edgeStyle=orthogonalEdgeStyle;rounded=0;orthogonalLoop=1;jettySize=auto;html=1;" edge="1" parent="Mc50w4lBMcDeLSj56KUi-2" source="Mc50w4lBMcDeLSj56KUi-15" target="Mc50w4lBMcDeLSj56KUi-23">
                    <mxGeometry relative="1" as="geometry"/>
                </mxCell>
                <mxCell id="Mc50w4lBMcDeLSj56KUi-74" style="edgeStyle=orthogonalEdgeStyle;rounded=0;orthogonalLoop=1;jettySize=auto;html=1;entryX=0;entryY=0.5;entryDx=0;entryDy=0;" edge="1" parent="Mc50w4lBMcDeLSj56KUi-2" source="Mc50w4lBMcDeLSj56KUi-6" target="Mc50w4lBMcDeLSj56KUi-11">
                    <mxGeometry relative="1" as="geometry"/>
                </mxCell>
                <mxCell id="Mc50w4lBMcDeLSj56KUi-75" style="edgeStyle=orthogonalEdgeStyle;rounded=0;orthogonalLoop=1;jettySize=auto;html=1;entryX=0;entryY=0.5;entryDx=0;entryDy=0;" edge="1" parent="Mc50w4lBMcDeLSj56KUi-2" source="Mc50w4lBMcDeLSj56KUi-48" target="Mc50w4lBMcDeLSj56KUi-55">
                    <mxGeometry relative="1" as="geometry"/>
                </mxCell>
                <mxCell id="Mc50w4lBMcDeLSj56KUi-77" style="edgeStyle=orthogonalEdgeStyle;rounded=1;html=1;labelBackgroundColor=none;startArrow=none;startFill=0;startSize=5;endArrow=classicThin;endFill=1;endSize=5;jettySize=auto;orthogonalLoop=1;strokeWidth=1;fontFamily=Verdana;fontSize=8" edge="1" parent="Mc50w4lBMcDeLSj56KUi-2" source="Mc50w4lBMcDeLSj56KUi-13" target="Mc50w4lBMcDeLSj56KUi-24">
                    <mxGeometry relative="1" as="geometry"/>
                </mxCell>
                <mxCell id="Mc50w4lBMcDeLSj56KUi-80" value="" style="edgeStyle=none;html=1;" edge="1" parent="Mc50w4lBMcDeLSj56KUi-2" source="Mc50w4lBMcDeLSj56KUi-32" target="Mc50w4lBMcDeLSj56KUi-45">
                    <mxGeometry relative="1" as="geometry"/>
                </mxCell>
                <mxCell id="Mc50w4lBMcDeLSj56KUi-81" style="edgeStyle=none;html=1;entryX=0;entryY=0.5;entryDx=0;entryDy=0;" edge="1" parent="Mc50w4lBMcDeLSj56KUi-2" source="Mc50w4lBMcDeLSj56KUi-45" target="Mc50w4lBMcDeLSj56KUi-50">
                    <mxGeometry relative="1" as="geometry"/>
                </mxCell>
                <mxCell id="B1jrbHe4EjJ4HCNdL6lR-3" style="edgeStyle=none;html=1;entryX=0;entryY=0.5;entryDx=0;entryDy=0;" edge="1" parent="Mc50w4lBMcDeLSj56KUi-2" source="B1jrbHe4EjJ4HCNdL6lR-2" target="Mc50w4lBMcDeLSj56KUi-26">
                    <mxGeometry relative="1" as="geometry"/>
                </mxCell>
                <mxCell id="B1jrbHe4EjJ4HCNdL6lR-5" style="edgeStyle=none;html=1;entryX=0.895;entryY=1;entryDx=0;entryDy=0;entryPerimeter=0;" edge="1" parent="Mc50w4lBMcDeLSj56KUi-2" source="B1jrbHe4EjJ4HCNdL6lR-2" target="Mc50w4lBMcDeLSj56KUi-16">
                    <mxGeometry relative="1" as="geometry">
                        <Array as="points">
                            <mxPoint x="460" y="760"/>
                        </Array>
                    </mxGeometry>
                </mxCell>
                <mxCell id="B1jrbHe4EjJ4HCNdL6lR-8" style="edgeStyle=orthogonalEdgeStyle;html=1;entryX=0.5;entryY=1;entryDx=0;entryDy=0;" edge="1" parent="Mc50w4lBMcDeLSj56KUi-2" source="Mc50w4lBMcDeLSj56KUi-15" target="Mc50w4lBMcDeLSj56KUi-58">
                    <mxGeometry relative="1" as="geometry"/>
                </mxCell>
                <mxCell id="Mc50w4lBMcDeLSj56KUi-38" style="edgeStyle=orthogonalEdgeStyle;rounded=0;orthogonalLoop=1;jettySize=auto;html=1;entryX=0;entryY=0.5;entryDx=0;entryDy=0;" edge="1" parent="Mc50w4lBMcDeLSj56KUi-2" source="Mc50w4lBMcDeLSj56KUi-40" target="Mc50w4lBMcDeLSj56KUi-43">
                    <mxGeometry relative="1" as="geometry">
                        <Array as="points">
                            <mxPoint x="770" y="420"/>
                        </Array>
                    </mxGeometry>
                </mxCell>
                <mxCell id="Mc50w4lBMcDeLSj56KUi-76" style="edgeStyle=orthogonalEdgeStyle;rounded=0;orthogonalLoop=1;jettySize=auto;html=1;" edge="1" parent="Mc50w4lBMcDeLSj56KUi-2" source="Mc50w4lBMcDeLSj56KUi-18" target="Mc50w4lBMcDeLSj56KUi-40">
                    <mxGeometry relative="1" as="geometry"/>
                </mxCell>
            </root>
        </mxGraphModel>
    </diagram>
    <diagram name="制作フローのコピーのコピー" id="pfW3lf72uPNdmaA9rwUU">
        <mxGraphModel dx="2302" dy="1545" grid="1" gridSize="10" guides="1" tooltips="1" connect="1" arrows="1" fold="1" page="1" pageScale="1" pageWidth="827" pageHeight="1169" math="0" shadow="0">
            <root>
                <mxCell id="v7Wbf7wJUb8fNGh6gjVY-0"/>
                <mxCell id="v7Wbf7wJUb8fNGh6gjVY-1" parent="v7Wbf7wJUb8fNGh6gjVY-0"/>
                <mxCell id="v7Wbf7wJUb8fNGh6gjVY-2" value="Pool" style="swimlane;html=1;childLayout=stackLayout;startSize=20;rounded=0;shadow=0;labelBackgroundColor=none;strokeWidth=2;fontFamily=Verdana;fontSize=8;align=center;" parent="v7Wbf7wJUb8fNGh6gjVY-1" vertex="1">
                    <mxGeometry x="-173" y="120" width="1190" height="1280" as="geometry"/>
                </mxCell>
                <mxCell id="v7Wbf7wJUb8fNGh6gjVY-16" value="6月上旬" style="swimlane;html=1;startSize=20;dashed=1;dashPattern=1 2;" parent="v7Wbf7wJUb8fNGh6gjVY-2" vertex="1">
                    <mxGeometry y="20" width="260" height="1260" as="geometry"/>
                </mxCell>
                <mxCell id="v7Wbf7wJUb8fNGh6gjVY-17" style="edgeStyle=orthogonalEdgeStyle;rounded=0;orthogonalLoop=1;jettySize=auto;html=1;entryX=0;entryY=0.5;entryDx=0;entryDy=0;" parent="v7Wbf7wJUb8fNGh6gjVY-16" source="v7Wbf7wJUb8fNGh6gjVY-18" target="v7Wbf7wJUb8fNGh6gjVY-19" edge="1">
                    <mxGeometry relative="1" as="geometry"/>
                </mxCell>
                <mxCell id="v7Wbf7wJUb8fNGh6gjVY-18" value="第1次審査書期（期末後）" style="rounded=1;whiteSpace=wrap;html=1;shadow=0;labelBackgroundColor=none;strokeWidth=1;fontFamily=Verdana;fontSize=8;align=center;" parent="v7Wbf7wJUb8fNGh6gjVY-16" vertex="1">
                    <mxGeometry y="90" width="130" height="60" as="geometry"/>
                </mxCell>
                <mxCell id="v7Wbf7wJUb8fNGh6gjVY-19" value="プレ" style="rounded=1;whiteSpace=wrap;html=1;shadow=0;labelBackgroundColor=none;strokeWidth=1;fontFamily=Verdana;fontSize=8;align=center;" parent="v7Wbf7wJUb8fNGh6gjVY-16" vertex="1">
                    <mxGeometry x="120" y="30" width="20" height="60" as="geometry"/>
                </mxCell>
                <mxCell id="v7Wbf7wJUb8fNGh6gjVY-24" value="電装タワー制作" style="rounded=1;whiteSpace=wrap;html=1;shadow=0;labelBackgroundColor=none;strokeWidth=1;fontFamily=Verdana;fontSize=8;align=center;" parent="v7Wbf7wJUb8fNGh6gjVY-16" vertex="1">
                    <mxGeometry x="150" y="710" width="100" height="60" as="geometry"/>
                </mxCell>
                <mxCell id="v7Wbf7wJUb8fNGh6gjVY-27" value="歓迎ご飯" style="rounded=1;whiteSpace=wrap;html=1;shadow=0;labelBackgroundColor=none;strokeWidth=1;fontFamily=Verdana;fontSize=8;align=center;" parent="v7Wbf7wJUb8fNGh6gjVY-16" vertex="1">
                    <mxGeometry y="1170" width="100" height="60" as="geometry"/>
                </mxCell>
                <mxCell id="v7Wbf7wJUb8fNGh6gjVY-29" value="9軸成功" style="rounded=1;whiteSpace=wrap;html=1;shadow=0;labelBackgroundColor=none;strokeWidth=1;fontFamily=Verdana;fontSize=8;align=center;" parent="v7Wbf7wJUb8fNGh6gjVY-16" vertex="1">
                    <mxGeometry x="93" y="980" width="100" height="60" as="geometry"/>
                </mxCell>
                <mxCell id="v7Wbf7wJUb8fNGh6gjVY-30" value="ロードセル箱・基盤" style="rounded=1;whiteSpace=wrap;html=1;shadow=0;labelBackgroundColor=none;strokeWidth=1;fontFamily=Verdana;fontSize=8;align=center;" parent="v7Wbf7wJUb8fNGh6gjVY-16" vertex="1">
                    <mxGeometry y="230" width="100" height="60" as="geometry"/>
                </mxCell>
                <mxCell id="v7Wbf7wJUb8fNGh6gjVY-32" value="本番プリント" style="rounded=1;whiteSpace=wrap;html=1;shadow=0;labelBackgroundColor=none;strokeWidth=1;fontFamily=Verdana;fontSize=8;align=center;" parent="v7Wbf7wJUb8fNGh6gjVY-16" vertex="1">
                    <mxGeometry x="130" y="315" width="100" height="60" as="geometry"/>
                </mxCell>
                <mxCell id="v7Wbf7wJUb8fNGh6gjVY-14" value="電装タワー決定" style="rounded=1;whiteSpace=wrap;html=1;shadow=0;labelBackgroundColor=none;strokeWidth=1;fontFamily=Verdana;fontSize=8;align=center;" parent="v7Wbf7wJUb8fNGh6gjVY-16" vertex="1">
                    <mxGeometry y="710" width="100" height="60" as="geometry"/>
                </mxCell>
                <mxCell id="v7Wbf7wJUb8fNGh6gjVY-80" style="edgeStyle=none;html=1;entryX=0;entryY=0.5;entryDx=0;entryDy=0;" parent="v7Wbf7wJUb8fNGh6gjVY-16" source="v7Wbf7wJUb8fNGh6gjVY-14" target="v7Wbf7wJUb8fNGh6gjVY-24" edge="1">
                    <mxGeometry relative="1" as="geometry"/>
                </mxCell>
                <mxCell id="v7Wbf7wJUb8fNGh6gjVY-10" value="社P実施形態の深掘り" style="rounded=1;whiteSpace=wrap;html=1;shadow=0;labelBackgroundColor=none;strokeWidth=1;fontFamily=Verdana;fontSize=8;align=center;" parent="v7Wbf7wJUb8fNGh6gjVY-16" vertex="1">
                    <mxGeometry x="40" y="1080" width="170" height="60" as="geometry"/>
                </mxCell>
                <mxCell id="v7Wbf7wJUb8fNGh6gjVY-34" value="電装プレート発注" style="rounded=1;whiteSpace=wrap;html=1;shadow=0;labelBackgroundColor=none;strokeWidth=1;fontFamily=Verdana;fontSize=8;align=center;" parent="v7Wbf7wJUb8fNGh6gjVY-16" vertex="1">
                    <mxGeometry x="80" y="800" width="100" height="60" as="geometry"/>
                </mxCell>
                <mxCell id="v7Wbf7wJUb8fNGh6gjVY-40" value="6月下旬" style="swimlane;html=1;startSize=20;dashed=1;dashPattern=1 2;" parent="v7Wbf7wJUb8fNGh6gjVY-2" vertex="1">
                    <mxGeometry x="260" y="20" width="260" height="1260" as="geometry"/>
                </mxCell>
                <mxCell id="v7Wbf7wJUb8fNGh6gjVY-41" value="新入生教育" style="rounded=1;whiteSpace=wrap;html=1;shadow=0;labelBackgroundColor=none;strokeWidth=1;fontFamily=Verdana;fontSize=8;align=center;" parent="v7Wbf7wJUb8fNGh6gjVY-40" vertex="1">
                    <mxGeometry x="30" y="1170" width="100" height="60" as="geometry"/>
                </mxCell>
                <mxCell id="v7Wbf7wJUb8fNGh6gjVY-42" value="1st" style="rounded=1;whiteSpace=wrap;html=1;shadow=0;labelBackgroundColor=none;strokeWidth=1;fontFamily=Verdana;fontSize=8;align=center;" parent="v7Wbf7wJUb8fNGh6gjVY-40" vertex="1">
                    <mxGeometry x="120" y="30" width="20" height="60" as="geometry"/>
                </mxCell>
                <mxCell id="v7Wbf7wJUb8fNGh6gjVY-43" style="edgeStyle=orthogonalEdgeStyle;rounded=0;orthogonalLoop=1;jettySize=auto;html=1;" parent="v7Wbf7wJUb8fNGh6gjVY-40" source="v7Wbf7wJUb8fNGh6gjVY-44" edge="1">
                    <mxGeometry relative="1" as="geometry">
                        <mxPoint x="50" y="60" as="targetPoint"/>
                        <Array as="points">
                            <mxPoint x="50" y="90"/>
                            <mxPoint x="50" y="90"/>
                        </Array>
                    </mxGeometry>
                </mxCell>
                <mxCell id="v7Wbf7wJUb8fNGh6gjVY-44" value="第2次シミュレーション" style="rounded=1;whiteSpace=wrap;html=1;shadow=0;labelBackgroundColor=none;strokeWidth=1;fontFamily=Verdana;fontSize=8;align=center;" parent="v7Wbf7wJUb8fNGh6gjVY-40" vertex="1">
                    <mxGeometry x="30" y="160" width="100" height="60" as="geometry"/>
                </mxCell>
                <mxCell id="v7Wbf7wJUb8fNGh6gjVY-47" value="地上燃焼試験1st" style="rounded=1;whiteSpace=wrap;html=1;shadow=0;labelBackgroundColor=none;strokeWidth=1;fontFamily=Verdana;fontSize=8;align=center;" parent="v7Wbf7wJUb8fNGh6gjVY-40" vertex="1">
                    <mxGeometry x="60" y="230" width="100" height="60" as="geometry"/>
                </mxCell>
                <mxCell id="mWcIP-Nt6csReat0SXpE-1" style="edgeStyle=none;html=1;entryX=0;entryY=0.5;entryDx=0;entryDy=0;" parent="v7Wbf7wJUb8fNGh6gjVY-40" source="v7Wbf7wJUb8fNGh6gjVY-31" target="mWcIP-Nt6csReat0SXpE-0" edge="1">
                    <mxGeometry relative="1" as="geometry"/>
                </mxCell>
                <mxCell id="v7Wbf7wJUb8fNGh6gjVY-31" value="分離組み立て" style="rounded=1;whiteSpace=wrap;html=1;shadow=0;labelBackgroundColor=none;strokeWidth=1;fontFamily=Verdana;fontSize=8;align=center;" parent="v7Wbf7wJUb8fNGh6gjVY-40" vertex="1">
                    <mxGeometry x="10" y="315" width="100" height="60" as="geometry"/>
                </mxCell>
                <mxCell id="mWcIP-Nt6csReat0SXpE-0" value="分離荷重試験" style="rounded=1;whiteSpace=wrap;html=1;shadow=0;labelBackgroundColor=none;strokeWidth=1;fontFamily=Verdana;fontSize=8;align=center;" parent="v7Wbf7wJUb8fNGh6gjVY-40" vertex="1">
                    <mxGeometry x="160" y="315" width="100" height="60" as="geometry"/>
                </mxCell>
                <mxCell id="v7Wbf7wJUb8fNGh6gjVY-39" value="チューブ穴空け" style="rounded=1;whiteSpace=wrap;html=1;shadow=0;labelBackgroundColor=none;strokeWidth=1;fontFamily=Verdana;fontSize=8;align=center;" parent="v7Wbf7wJUb8fNGh6gjVY-40" vertex="1">
                    <mxGeometry x="73" y="470" width="260" height="60" as="geometry"/>
                </mxCell>
                <mxCell id="v7Wbf7wJUb8fNGh6gjVY-12" value="金属部品発注" style="rounded=1;whiteSpace=wrap;html=1;shadow=0;labelBackgroundColor=none;strokeWidth=1;fontFamily=Verdana;fontSize=8;align=center;" parent="v7Wbf7wJUb8fNGh6gjVY-40" vertex="1">
                    <mxGeometry x="80" y="630" width="100" height="60" as="geometry"/>
                </mxCell>
                <mxCell id="v7Wbf7wJUb8fNGh6gjVY-48" value="7月上旬" style="swimlane;html=1;startSize=20;dashed=1;dashPattern=1 2;" parent="v7Wbf7wJUb8fNGh6gjVY-2" vertex="1">
                    <mxGeometry x="520" y="20" width="250" height="1260" as="geometry"/>
                </mxCell>
                <mxCell id="v7Wbf7wJUb8fNGh6gjVY-49" style="edgeStyle=orthogonalEdgeStyle;rounded=0;orthogonalLoop=1;jettySize=auto;html=1;entryX=0;entryY=0.5;entryDx=0;entryDy=0;" parent="v7Wbf7wJUb8fNGh6gjVY-48" source="v7Wbf7wJUb8fNGh6gjVY-50" target="v7Wbf7wJUb8fNGh6gjVY-53" edge="1">
                    <mxGeometry relative="1" as="geometry">
                        <Array as="points">
                            <mxPoint x="30" y="98"/>
                        </Array>
                    </mxGeometry>
                </mxCell>
                <mxCell id="v7Wbf7wJUb8fNGh6gjVY-50" value="第2&lt;span style=&quot;background-color: transparent; color: light-dark(rgb(0, 0, 0), rgb(255, 255, 255));&quot;&gt;次審査書&lt;/span&gt;期&lt;span style=&quot;background-color: transparent; color: light-dark(rgb(0, 0, 0), rgb(255, 255, 255));&quot;&gt;（期末後）&lt;/span&gt;" style="rounded=1;whiteSpace=wrap;html=1;shadow=0;labelBackgroundColor=none;strokeWidth=1;fontFamily=Verdana;fontSize=8;align=center;" parent="v7Wbf7wJUb8fNGh6gjVY-48" vertex="1">
                    <mxGeometry y="90" width="150" height="60" as="geometry"/>
                </mxCell>
                <mxCell id="v7Wbf7wJUb8fNGh6gjVY-51" style="edgeStyle=orthogonalEdgeStyle;rounded=0;orthogonalLoop=1;jettySize=auto;html=1;" parent="v7Wbf7wJUb8fNGh6gjVY-48" source="v7Wbf7wJUb8fNGh6gjVY-52" edge="1">
                    <mxGeometry relative="1" as="geometry">
                        <mxPoint x="79.99999999999977" y="190" as="targetPoint"/>
                    </mxGeometry>
                </mxCell>
                <mxCell id="v7Wbf7wJUb8fNGh6gjVY-52" value="地上燃焼試験2nd" style="rounded=1;whiteSpace=wrap;html=1;shadow=0;labelBackgroundColor=none;strokeWidth=1;fontFamily=Verdana;fontSize=8;align=center;" parent="v7Wbf7wJUb8fNGh6gjVY-48" vertex="1">
                    <mxGeometry x="133" y="230" width="100" height="60" as="geometry"/>
                </mxCell>
                <mxCell id="v7Wbf7wJUb8fNGh6gjVY-53" value="2nd" style="rounded=1;whiteSpace=wrap;html=1;shadow=0;labelBackgroundColor=none;strokeWidth=1;fontFamily=Verdana;fontSize=8;align=center;" parent="v7Wbf7wJUb8fNGh6gjVY-48" vertex="1">
                    <mxGeometry x="115" y="30" width="20" height="60" as="geometry"/>
                </mxCell>
                <mxCell id="v7Wbf7wJUb8fNGh6gjVY-54" style="edgeStyle=orthogonalEdgeStyle;rounded=0;orthogonalLoop=1;jettySize=auto;html=1;entryX=1;entryY=0.25;entryDx=0;entryDy=0;" parent="v7Wbf7wJUb8fNGh6gjVY-48" source="v7Wbf7wJUb8fNGh6gjVY-53" target="v7Wbf7wJUb8fNGh6gjVY-50" edge="1">
                    <mxGeometry relative="1" as="geometry">
                        <Array as="points">
                            <mxPoint x="130" y="60"/>
                            <mxPoint x="130" y="105"/>
                        </Array>
                    </mxGeometry>
                </mxCell>
                <mxCell id="mWcIP-Nt6csReat0SXpE-2" value="チューブ荷重試験" style="rounded=1;whiteSpace=wrap;html=1;shadow=0;labelBackgroundColor=none;strokeWidth=1;fontFamily=Verdana;fontSize=8;align=center;" parent="v7Wbf7wJUb8fNGh6gjVY-48" vertex="1">
                    <mxGeometry x="150" y="560" width="100" height="60" as="geometry"/>
                </mxCell>
                <mxCell id="v7Wbf7wJUb8fNGh6gjVY-15" value="本重心計測" style="rounded=1;whiteSpace=wrap;html=1;shadow=0;labelBackgroundColor=none;strokeWidth=1;fontFamily=Verdana;fontSize=8;align=center;" parent="v7Wbf7wJUb8fNGh6gjVY-48" vertex="1">
                    <mxGeometry x="123" y="630" width="100" height="60" as="geometry"/>
                </mxCell>
                <mxCell id="v7Wbf7wJUb8fNGh6gjVY-21" value="チューブ塗装" style="rounded=1;whiteSpace=wrap;html=1;shadow=0;labelBackgroundColor=none;strokeWidth=1;fontFamily=Verdana;fontSize=8;align=center;" parent="v7Wbf7wJUb8fNGh6gjVY-48" vertex="1">
                    <mxGeometry x="150" y="470" width="100" height="60" as="geometry"/>
                </mxCell>
                <mxCell id="mWcIP-Nt6csReat0SXpE-3" style="edgeStyle=none;html=1;" parent="v7Wbf7wJUb8fNGh6gjVY-48" source="v7Wbf7wJUb8fNGh6gjVY-21" target="mWcIP-Nt6csReat0SXpE-2" edge="1">
                    <mxGeometry relative="1" as="geometry"/>
                </mxCell>
                <mxCell id="v7Wbf7wJUb8fNGh6gjVY-13" value="デザイン完成" style="rounded=1;whiteSpace=wrap;html=1;shadow=0;labelBackgroundColor=none;strokeWidth=1;fontFamily=Verdana;fontSize=8;align=center;" parent="v7Wbf7wJUb8fNGh6gjVY-48" vertex="1">
                    <mxGeometry x="23" y="317" width="100" height="60" as="geometry"/>
                </mxCell>
                <mxCell id="-z-bNrv3wPKpCMAyicmM-3" style="edgeStyle=orthogonalEdgeStyle;html=1;entryX=0;entryY=0.5;entryDx=0;entryDy=0;" parent="v7Wbf7wJUb8fNGh6gjVY-48" source="v7Wbf7wJUb8fNGh6gjVY-13" target="v7Wbf7wJUb8fNGh6gjVY-21" edge="1">
                    <mxGeometry relative="1" as="geometry"/>
                </mxCell>
                <mxCell id="v7Wbf7wJUb8fNGh6gjVY-23" value="モジュール結合・試験" style="rounded=1;whiteSpace=wrap;html=1;shadow=0;labelBackgroundColor=none;strokeWidth=1;fontFamily=Verdana;fontSize=8;align=center;" parent="v7Wbf7wJUb8fNGh6gjVY-48" vertex="1">
                    <mxGeometry x="143" y="880" width="100" height="60" as="geometry"/>
                </mxCell>
                <mxCell id="v7Wbf7wJUb8fNGh6gjVY-36" value="ES成功" style="rounded=1;whiteSpace=wrap;html=1;shadow=0;labelBackgroundColor=none;strokeWidth=1;fontFamily=Verdana;fontSize=8;align=center;" parent="v7Wbf7wJUb8fNGh6gjVY-48" vertex="1">
                    <mxGeometry y="880" width="100" height="60" as="geometry"/>
                </mxCell>
                <mxCell id="v7Wbf7wJUb8fNGh6gjVY-37" style="edgeStyle=orthogonalEdgeStyle;rounded=0;orthogonalLoop=1;jettySize=auto;html=1;entryX=0;entryY=0.5;entryDx=0;entryDy=0;" parent="v7Wbf7wJUb8fNGh6gjVY-48" source="v7Wbf7wJUb8fNGh6gjVY-36" target="v7Wbf7wJUb8fNGh6gjVY-23" edge="1">
                    <mxGeometry relative="1" as="geometry"/>
                </mxCell>
                <mxCell id="v7Wbf7wJUb8fNGh6gjVY-22" value="金属加工" style="rounded=1;whiteSpace=wrap;html=1;shadow=0;labelBackgroundColor=none;strokeWidth=1;fontFamily=Verdana;fontSize=8;align=center;" parent="v7Wbf7wJUb8fNGh6gjVY-48" vertex="1">
                    <mxGeometry y="630" width="100" height="60" as="geometry"/>
                </mxCell>
                <mxCell id="1I42DUbAPKEsejyjN5LN-0" style="edgeStyle=orthogonalEdgeStyle;rounded=0;orthogonalLoop=1;jettySize=auto;html=1;entryX=0;entryY=0.5;entryDx=0;entryDy=0;" parent="v7Wbf7wJUb8fNGh6gjVY-48" source="v7Wbf7wJUb8fNGh6gjVY-22" target="v7Wbf7wJUb8fNGh6gjVY-15" edge="1">
                    <mxGeometry relative="1" as="geometry"/>
                </mxCell>
                <mxCell id="v7Wbf7wJUb8fNGh6gjVY-56" value="7月下旬" style="swimlane;html=1;startSize=20;dashed=1;dashPattern=1 2;" parent="v7Wbf7wJUb8fNGh6gjVY-2" vertex="1">
                    <mxGeometry x="770" y="20" width="260" height="1260" as="geometry"/>
                </mxCell>
                <mxCell id="v7Wbf7wJUb8fNGh6gjVY-57" value="3rd" style="rounded=1;whiteSpace=wrap;html=1;shadow=0;labelBackgroundColor=none;strokeWidth=1;fontFamily=Verdana;fontSize=8;align=center;" parent="v7Wbf7wJUb8fNGh6gjVY-56" vertex="1">
                    <mxGeometry x="120" y="30" width="20" height="60" as="geometry"/>
                </mxCell>
                <mxCell id="v7Wbf7wJUb8fNGh6gjVY-58" style="edgeStyle=orthogonalEdgeStyle;rounded=0;orthogonalLoop=1;jettySize=auto;html=1;" parent="v7Wbf7wJUb8fNGh6gjVY-56" source="v7Wbf7wJUb8fNGh6gjVY-59" target="v7Wbf7wJUb8fNGh6gjVY-57" edge="1">
                    <mxGeometry relative="1" as="geometry"/>
                </mxCell>
                <mxCell id="v7Wbf7wJUb8fNGh6gjVY-59" value="第3&lt;span style=&quot;background-color: transparent; color: light-dark(rgb(0, 0, 0), rgb(255, 255, 255));&quot;&gt;次シミュレーション&lt;/span&gt;" style="rounded=1;whiteSpace=wrap;html=1;shadow=0;labelBackgroundColor=none;strokeWidth=1;fontFamily=Verdana;fontSize=8;align=center;" parent="v7Wbf7wJUb8fNGh6gjVY-56" vertex="1">
                    <mxGeometry x="53" y="160" width="100" height="60" as="geometry"/>
                </mxCell>
                <mxCell id="v7Wbf7wJUb8fNGh6gjVY-60" value="フィン塗装" style="rounded=1;whiteSpace=wrap;html=1;shadow=0;labelBackgroundColor=none;strokeWidth=1;fontFamily=Verdana;fontSize=8;align=center;" parent="v7Wbf7wJUb8fNGh6gjVY-56" vertex="1">
                    <mxGeometry x="73" y="580" width="100" height="60" as="geometry"/>
                </mxCell>
                <mxCell id="v7Wbf7wJUb8fNGh6gjVY-46" value="回路完成" style="rounded=1;whiteSpace=wrap;html=1;shadow=0;labelBackgroundColor=none;strokeWidth=1;fontFamily=Verdana;fontSize=8;align=center;" parent="v7Wbf7wJUb8fNGh6gjVY-56" vertex="1">
                    <mxGeometry x="13" y="880" width="100" height="60" as="geometry"/>
                </mxCell>
                <mxCell id="v7Wbf7wJUb8fNGh6gjVY-55" value="フィン制作*4^3" style="rounded=1;whiteSpace=wrap;html=1;shadow=0;labelBackgroundColor=none;strokeWidth=1;fontFamily=Verdana;fontSize=8;align=center;" parent="v7Wbf7wJUb8fNGh6gjVY-56" vertex="1">
                    <mxGeometry x="73" y="770" width="100" height="60" as="geometry"/>
                </mxCell>
                <mxCell id="v7Wbf7wJUb8fNGh6gjVY-71" style="edgeStyle=orthogonalEdgeStyle;rounded=0;orthogonalLoop=1;jettySize=auto;html=1;" parent="v7Wbf7wJUb8fNGh6gjVY-56" source="v7Wbf7wJUb8fNGh6gjVY-55" target="v7Wbf7wJUb8fNGh6gjVY-60" edge="1">
                    <mxGeometry relative="1" as="geometry"/>
                </mxCell>
                <mxCell id="v7Wbf7wJUb8fNGh6gjVY-45" value="フィン決定" style="rounded=1;whiteSpace=wrap;html=1;shadow=0;labelBackgroundColor=none;strokeWidth=1;fontFamily=Verdana;fontSize=8;align=center;" parent="v7Wbf7wJUb8fNGh6gjVY-56" vertex="1">
                    <mxGeometry y="700" width="100" height="60" as="geometry"/>
                </mxCell>
                <mxCell id="v7Wbf7wJUb8fNGh6gjVY-70" style="edgeStyle=orthogonalEdgeStyle;rounded=0;orthogonalLoop=1;jettySize=auto;html=1;entryX=0;entryY=0.5;entryDx=0;entryDy=0;" parent="v7Wbf7wJUb8fNGh6gjVY-56" source="v7Wbf7wJUb8fNGh6gjVY-45" target="v7Wbf7wJUb8fNGh6gjVY-55" edge="1">
                    <mxGeometry relative="1" as="geometry"/>
                </mxCell>
                <mxCell id="v7Wbf7wJUb8fNGh6gjVY-61" value="8月上旬" style="swimlane;html=1;startSize=20;dashed=1;dashPattern=1 2;" parent="v7Wbf7wJUb8fNGh6gjVY-2" vertex="1">
                    <mxGeometry x="1030" y="20" width="160" height="1260" as="geometry"/>
                </mxCell>
                <mxCell id="v7Wbf7wJUb8fNGh6gjVY-62" value="" style="rounded=1;whiteSpace=wrap;html=1;shadow=0;labelBackgroundColor=none;strokeWidth=1;fontFamily=Verdana;fontSize=8;align=center;" parent="v7Wbf7wJUb8fNGh6gjVY-61" vertex="1">
                    <mxGeometry x="30" y="640" width="100" height="60" as="geometry"/>
                </mxCell>
                <mxCell id="v7Wbf7wJUb8fNGh6gjVY-63" style="edgeStyle=orthogonalEdgeStyle;rounded=0;orthogonalLoop=1;jettySize=auto;html=1;entryX=0;entryY=0.5;entryDx=0;entryDy=0;" parent="v7Wbf7wJUb8fNGh6gjVY-2" source="v7Wbf7wJUb8fNGh6gjVY-19" target="v7Wbf7wJUb8fNGh6gjVY-42" edge="1">
                    <mxGeometry relative="1" as="geometry"/>
                </mxCell>
                <mxCell id="v7Wbf7wJUb8fNGh6gjVY-64" style="edgeStyle=orthogonalEdgeStyle;rounded=0;orthogonalLoop=1;jettySize=auto;html=1;" parent="v7Wbf7wJUb8fNGh6gjVY-2" source="v7Wbf7wJUb8fNGh6gjVY-42" target="v7Wbf7wJUb8fNGh6gjVY-50" edge="1">
                    <mxGeometry relative="1" as="geometry">
                        <Array as="points">
                            <mxPoint x="610" y="140"/>
                        </Array>
                    </mxGeometry>
                </mxCell>
                <mxCell id="v7Wbf7wJUb8fNGh6gjVY-65" style="edgeStyle=orthogonalEdgeStyle;rounded=0;orthogonalLoop=1;jettySize=auto;html=1;entryX=0;entryY=0.5;entryDx=0;entryDy=0;flowAnimation=0;" parent="v7Wbf7wJUb8fNGh6gjVY-2" edge="1">
                    <mxGeometry relative="1" as="geometry">
                        <Array as="points">
                            <mxPoint x="70" y="365"/>
                        </Array>
                        <mxPoint x="190" y="365" as="targetPoint"/>
                    </mxGeometry>
                </mxCell>
                <mxCell id="v7Wbf7wJUb8fNGh6gjVY-66" style="edgeStyle=orthogonalEdgeStyle;rounded=0;orthogonalLoop=1;jettySize=auto;html=1;" parent="v7Wbf7wJUb8fNGh6gjVY-2" source="v7Wbf7wJUb8fNGh6gjVY-44" target="v7Wbf7wJUb8fNGh6gjVY-59" edge="1">
                    <mxGeometry relative="1" as="geometry"/>
                </mxCell>
                <mxCell id="v7Wbf7wJUb8fNGh6gjVY-67" style="edgeStyle=orthogonalEdgeStyle;rounded=0;orthogonalLoop=1;jettySize=auto;html=1;entryX=0;entryY=0.5;entryDx=0;entryDy=0;" parent="v7Wbf7wJUb8fNGh6gjVY-2" source="v7Wbf7wJUb8fNGh6gjVY-27" target="v7Wbf7wJUb8fNGh6gjVY-41" edge="1">
                    <mxGeometry relative="1" as="geometry"/>
                </mxCell>
                <mxCell id="v7Wbf7wJUb8fNGh6gjVY-76" style="edgeStyle=orthogonalEdgeStyle;rounded=0;orthogonalLoop=1;jettySize=auto;html=1;entryX=0;entryY=0.5;entryDx=0;entryDy=0;" parent="v7Wbf7wJUb8fNGh6gjVY-2" source="v7Wbf7wJUb8fNGh6gjVY-50" target="v7Wbf7wJUb8fNGh6gjVY-57" edge="1">
                    <mxGeometry relative="1" as="geometry"/>
                </mxCell>
                <mxCell id="v7Wbf7wJUb8fNGh6gjVY-78" value="" style="edgeStyle=none;html=1;" parent="v7Wbf7wJUb8fNGh6gjVY-2" source="v7Wbf7wJUb8fNGh6gjVY-30" target="v7Wbf7wJUb8fNGh6gjVY-47" edge="1">
                    <mxGeometry relative="1" as="geometry"/>
                </mxCell>
                <mxCell id="v7Wbf7wJUb8fNGh6gjVY-79" style="edgeStyle=none;html=1;entryX=0;entryY=0.5;entryDx=0;entryDy=0;" parent="v7Wbf7wJUb8fNGh6gjVY-2" source="v7Wbf7wJUb8fNGh6gjVY-47" target="v7Wbf7wJUb8fNGh6gjVY-52" edge="1">
                    <mxGeometry relative="1" as="geometry"/>
                </mxCell>
                <mxCell id="v7Wbf7wJUb8fNGh6gjVY-82" style="edgeStyle=orthogonalEdgeStyle;html=1;entryX=0.5;entryY=0;entryDx=0;entryDy=0;" parent="v7Wbf7wJUb8fNGh6gjVY-2" source="v7Wbf7wJUb8fNGh6gjVY-13" target="v7Wbf7wJUb8fNGh6gjVY-60" edge="1">
                    <mxGeometry relative="1" as="geometry">
                        <mxPoint x="770" y="660" as="targetPoint"/>
                        <Array as="points">
                            <mxPoint x="860" y="370"/>
                        </Array>
                    </mxGeometry>
                </mxCell>
                <mxCell id="v7Wbf7wJUb8fNGh6gjVY-38" style="edgeStyle=none;html=1;entryX=0;entryY=0.5;entryDx=0;entryDy=0;" parent="v7Wbf7wJUb8fNGh6gjVY-2" source="v7Wbf7wJUb8fNGh6gjVY-39" target="v7Wbf7wJUb8fNGh6gjVY-21" edge="1">
                    <mxGeometry relative="1" as="geometry"/>
                </mxCell>
                <mxCell id="v7Wbf7wJUb8fNGh6gjVY-33" style="edgeStyle=orthogonalEdgeStyle;rounded=0;orthogonalLoop=1;jettySize=auto;html=1;" parent="v7Wbf7wJUb8fNGh6gjVY-2" source="v7Wbf7wJUb8fNGh6gjVY-32" target="v7Wbf7wJUb8fNGh6gjVY-31" edge="1">
                    <mxGeometry relative="1" as="geometry"/>
                </mxCell>
                <mxCell id="v7Wbf7wJUb8fNGh6gjVY-35" style="edgeStyle=orthogonalEdgeStyle;rounded=0;orthogonalLoop=1;jettySize=auto;html=1;entryX=0.25;entryY=0;entryDx=0;entryDy=0;" parent="v7Wbf7wJUb8fNGh6gjVY-2" source="v7Wbf7wJUb8fNGh6gjVY-34" target="v7Wbf7wJUb8fNGh6gjVY-23" edge="1">
                    <mxGeometry relative="1" as="geometry"/>
                </mxCell>
                <mxCell id="1I42DUbAPKEsejyjN5LN-2" style="edgeStyle=orthogonalEdgeStyle;rounded=0;orthogonalLoop=1;jettySize=auto;html=1;entryX=0.5;entryY=1;entryDx=0;entryDy=0;" parent="v7Wbf7wJUb8fNGh6gjVY-2" source="v7Wbf7wJUb8fNGh6gjVY-24" target="v7Wbf7wJUb8fNGh6gjVY-15" edge="1">
                    <mxGeometry relative="1" as="geometry"/>
                </mxCell>
                <mxCell id="1I42DUbAPKEsejyjN5LN-3" style="edgeStyle=orthogonalEdgeStyle;rounded=0;orthogonalLoop=1;jettySize=auto;html=1;entryX=0.75;entryY=0;entryDx=0;entryDy=0;" parent="v7Wbf7wJUb8fNGh6gjVY-2" source="v7Wbf7wJUb8fNGh6gjVY-24" target="v7Wbf7wJUb8fNGh6gjVY-23" edge="1">
                    <mxGeometry relative="1" as="geometry">
                        <Array as="points">
                            <mxPoint x="200" y="820"/>
                            <mxPoint x="738" y="820"/>
                        </Array>
                    </mxGeometry>
                </mxCell>
                <mxCell id="v7Wbf7wJUb8fNGh6gjVY-77" style="edgeStyle=orthogonalEdgeStyle;rounded=1;html=1;labelBackgroundColor=none;startArrow=none;startFill=0;startSize=5;endArrow=classicThin;endFill=1;endSize=5;jettySize=auto;orthogonalLoop=1;strokeWidth=1;fontFamily=Verdana;fontSize=8" parent="v7Wbf7wJUb8fNGh6gjVY-2" source="v7Wbf7wJUb8fNGh6gjVY-12" target="v7Wbf7wJUb8fNGh6gjVY-22" edge="1">
                    <mxGeometry relative="1" as="geometry"/>
                </mxCell>
                <mxCell id="v7Wbf7wJUb8fNGh6gjVY-72" style="edgeStyle=orthogonalEdgeStyle;rounded=0;orthogonalLoop=1;jettySize=auto;html=1;entryX=0;entryY=0.5;entryDx=0;entryDy=0;" parent="v7Wbf7wJUb8fNGh6gjVY-2" source="v7Wbf7wJUb8fNGh6gjVY-23" target="v7Wbf7wJUb8fNGh6gjVY-46" edge="1">
                    <mxGeometry relative="1" as="geometry"/>
                </mxCell>
                <mxCell id="-z-bNrv3wPKpCMAyicmM-4" style="edgeStyle=orthogonalEdgeStyle;html=1;entryX=0;entryY=0.5;entryDx=0;entryDy=0;" parent="v7Wbf7wJUb8fNGh6gjVY-2" source="v7Wbf7wJUb8fNGh6gjVY-14" target="v7Wbf7wJUb8fNGh6gjVY-39" edge="1">
                    <mxGeometry relative="1" as="geometry">
                        <Array as="points">
                            <mxPoint x="130" y="760"/>
                            <mxPoint x="130" y="520"/>
                        </Array>
                    </mxGeometry>
                </mxCell>
                <mxCell id="1V7p5t2EZF-j-9ozE6Pp-1" style="edgeStyle=none;html=1;entryX=0.5;entryY=1;entryDx=0;entryDy=0;" edge="1" parent="v7Wbf7wJUb8fNGh6gjVY-2" source="v7Wbf7wJUb8fNGh6gjVY-29" target="v7Wbf7wJUb8fNGh6gjVY-23">
                    <mxGeometry relative="1" as="geometry">
                        <Array as="points">
                            <mxPoint x="713" y="1030"/>
                        </Array>
                    </mxGeometry>
                </mxCell>
                <mxCell id="-z-bNrv3wPKpCMAyicmM-1" style="edgeStyle=orthogonalEdgeStyle;html=1;entryX=0;entryY=0.5;entryDx=0;entryDy=0;" parent="v7Wbf7wJUb8fNGh6gjVY-2" source="v7Wbf7wJUb8fNGh6gjVY-15" target="v7Wbf7wJUb8fNGh6gjVY-45" edge="1">
                    <mxGeometry relative="1" as="geometry"/>
                </mxCell>
            </root>
        </mxGraphModel>
    </diagram>
    <diagram name="審査書フロー" id="gnlqKbmmRPK3ERTNDp73">
        <mxGraphModel dx="1763" dy="618" grid="1" gridSize="10" guides="1" tooltips="1" connect="1" arrows="1" fold="1" page="1" pageScale="1" pageWidth="827" pageHeight="1169" math="0" shadow="0">
            <root>
                <mxCell id="0"/>
                <mxCell id="1" parent="0"/>
                <mxCell id="6-05rhzxaWfV1tzNvJGl-15" value="" style="group" parent="1" connectable="0" vertex="1">
                    <mxGeometry x="-215.995" y="242" width="1698.04" height="2028" as="geometry"/>
                </mxCell>
                <mxCell id="6-05rhzxaWfV1tzNvJGl-13" value="" style="group" parent="6-05rhzxaWfV1tzNvJGl-15" connectable="0" vertex="1">
                    <mxGeometry x="25.13499999999999" width="1670" height="2008" as="geometry"/>
                </mxCell>
                <mxCell id="_zdbnvrD7gKRoGHDi2ac-6" value="4月上旬" style="swimlane;html=1;startSize=20;dashed=1;dashPattern=1 2;movable=1;resizable=1;rotatable=1;deletable=1;editable=1;locked=0;connectable=1;container=0;" parent="6-05rhzxaWfV1tzNvJGl-13" vertex="1">
                    <mxGeometry width="180" height="1990" as="geometry"/>
                </mxCell>
                <mxCell id="_zdbnvrD7gKRoGHDi2ac-12" value="4月下旬" style="swimlane;html=1;startSize=20;dashed=1;dashPattern=1 2;movable=1;resizable=1;rotatable=1;deletable=1;editable=1;locked=0;connectable=1;" parent="6-05rhzxaWfV1tzNvJGl-13" vertex="1">
                    <mxGeometry x="180" width="160" height="1990" as="geometry"/>
                </mxCell>
                <mxCell id="_zdbnvrD7gKRoGHDi2ac-25" value="5月上旬" style="swimlane;html=1;startSize=20;dashed=1;strokeWidth=1;dashPattern=1 2;movable=1;resizable=1;rotatable=1;deletable=1;editable=1;locked=0;connectable=1;" parent="6-05rhzxaWfV1tzNvJGl-13" vertex="1">
                    <mxGeometry x="340" width="170" height="1990" as="geometry"/>
                </mxCell>
                <mxCell id="_zdbnvrD7gKRoGHDi2ac-33" value="5月下旬" style="swimlane;html=1;startSize=20;dashed=1;dashPattern=1 2;movable=1;resizable=1;rotatable=1;deletable=1;editable=1;locked=0;connectable=1;" parent="6-05rhzxaWfV1tzNvJGl-13" vertex="1">
                    <mxGeometry x="510" width="190" height="1990" as="geometry"/>
                </mxCell>
                <mxCell id="_zdbnvrD7gKRoGHDi2ac-48" value="6月上旬" style="swimlane;html=1;startSize=20;dashed=1;dashPattern=1 2;movable=1;resizable=1;rotatable=1;deletable=1;editable=1;locked=0;connectable=1;" parent="6-05rhzxaWfV1tzNvJGl-13" vertex="1">
                    <mxGeometry x="700" width="320" height="1990" as="geometry"/>
                </mxCell>
                <mxCell id="_zdbnvrD7gKRoGHDi2ac-52" value="&lt;font style=&quot;font-size: 18px;&quot;&gt;&lt;b style=&quot;color: rgba(0, 0, 0, 0);&quot;&gt;プレ審査&lt;/b&gt;&lt;/font&gt;" style="rounded=1;whiteSpace=wrap;html=1;shadow=0;labelBackgroundColor=none;strokeWidth=1;fontFamily=Verdana;fontSize=8;align=center;strokeColor=light-dark(default, #ff2600);fillColor=light-dark(#FFFFFF,#FF3819);horizontal=0;fontColor=light-dark(#000000,#000000);" parent="_zdbnvrD7gKRoGHDi2ac-48" vertex="1">
                    <mxGeometry x="70" y="20" width="30" height="1970" as="geometry"/>
                </mxCell>
                <mxCell id="_zdbnvrD7gKRoGHDi2ac-55" value="6月下旬" style="swimlane;html=1;startSize=20;dashed=1;dashPattern=1 2;movable=1;resizable=1;rotatable=1;deletable=1;editable=1;locked=0;connectable=1;" parent="6-05rhzxaWfV1tzNvJGl-13" vertex="1">
                    <mxGeometry x="870" width="160" height="1990" as="geometry"/>
                </mxCell>
                <mxCell id="HzPNLnH7VD_IH8l2VW2Z-11" value="機体" style="swimlane;whiteSpace=wrap;html=1;rotation=-90;fillColor=#d80073;fontColor=#ffffff;strokeColor=#A50040;" parent="_zdbnvrD7gKRoGHDi2ac-55" vertex="1">
                    <mxGeometry x="-288.5" y="-100.5" width="483.5" height="1694" as="geometry"/>
                </mxCell>
                <mxCell id="_zdbnvrD7gKRoGHDi2ac-67" value="第2&lt;span style=&quot;background-color: transparent; color: light-dark(rgb(0, 0, 0), rgb(255, 255, 255));&quot;&gt;次審査書&lt;/span&gt;期&lt;span style=&quot;background-color: transparent; color: light-dark(rgb(0, 0, 0), rgb(255, 255, 255));&quot;&gt;（期末後）&lt;/span&gt;" style="rounded=1;whiteSpace=wrap;html=1;shadow=0;labelBackgroundColor=none;strokeWidth=1;fontFamily=Verdana;fontSize=8;align=center;" parent="_zdbnvrD7gKRoGHDi2ac-55" vertex="1">
                    <mxGeometry x="-25.5" y="100" width="140" height="60" as="geometry"/>
                </mxCell>
                <mxCell id="_zdbnvrD7gKRoGHDi2ac-63" value="フィン決定" style="rounded=1;whiteSpace=wrap;html=1;shadow=0;labelBackgroundColor=none;strokeWidth=1;fontFamily=Verdana;fontSize=8;align=center;" parent="_zdbnvrD7gKRoGHDi2ac-55" vertex="1">
                    <mxGeometry x="20" y="360" width="100" height="60" as="geometry"/>
                </mxCell>
                <mxCell id="_zdbnvrD7gKRoGHDi2ac-65" value="7月上旬" style="swimlane;html=1;startSize=20;dashed=1;dashPattern=1 2;movable=1;resizable=1;rotatable=1;deletable=1;editable=1;locked=0;connectable=1;" parent="6-05rhzxaWfV1tzNvJGl-13" vertex="1">
                    <mxGeometry x="1030" width="160" height="1990" as="geometry"/>
                </mxCell>
                <mxCell id="_zdbnvrD7gKRoGHDi2ac-73" value="7月下旬" style="swimlane;html=1;startSize=20;dashed=1;dashPattern=1 2;movable=1;resizable=1;rotatable=1;deletable=1;editable=1;locked=0;connectable=1;" parent="6-05rhzxaWfV1tzNvJGl-13" vertex="1">
                    <mxGeometry x="1190" width="160" height="1990" as="geometry"/>
                </mxCell>
                <mxCell id="_zdbnvrD7gKRoGHDi2ac-78" value="8月上旬" style="swimlane;html=1;startSize=20;dashed=1;dashPattern=1 2;movable=1;resizable=1;rotatable=1;deletable=1;editable=1;locked=0;connectable=1;" parent="6-05rhzxaWfV1tzNvJGl-13" vertex="1">
                    <mxGeometry x="1350" width="160" height="1490" as="geometry"/>
                </mxCell>
                <mxCell id="6-05rhzxaWfV1tzNvJGl-5" value="8月下旬" style="swimlane;html=1;startSize=20;dashed=1;dashPattern=1 2;movable=1;resizable=1;rotatable=1;deletable=1;editable=1;locked=0;connectable=1;" parent="6-05rhzxaWfV1tzNvJGl-13" vertex="1">
                    <mxGeometry x="1510" width="160" height="1990" as="geometry"/>
                </mxCell>
                <mxCell id="6-05rhzxaWfV1tzNvJGl-14" value="" style="group;horizontal=0;" parent="6-05rhzxaWfV1tzNvJGl-15" connectable="0" vertex="1">
                    <mxGeometry y="20.004999999999825" width="1698.04" height="2007.9950000000001" as="geometry"/>
                </mxCell>
                <mxCell id="6-05rhzxaWfV1tzNvJGl-27" value="&lt;font style=&quot;font-size: 18px;&quot;&gt;&lt;b&gt;完成報告書&lt;/b&gt;&lt;/font&gt;" style="rounded=1;whiteSpace=wrap;html=1;shadow=0;labelBackgroundColor=none;strokeWidth=1;fontFamily=Verdana;fontSize=8;align=center;strokeColor=#A50040;fillColor=#d80073;fontColor=#ffffff;horizontal=0;" parent="6-05rhzxaWfV1tzNvJGl-14" vertex="1">
                    <mxGeometry x="1388.99" width="20.01" height="1970" as="geometry"/>
                </mxCell>
                <mxCell id="JriK4sLv8e0eXFn3nyI7-3" value="&lt;font style=&quot;font-size: 18px;&quot;&gt;&lt;b style=&quot;color: rgba(0, 0, 0, 0);&quot;&gt;審査③&lt;/b&gt;&lt;/font&gt;" style="rounded=1;whiteSpace=wrap;html=1;shadow=0;labelBackgroundColor=none;strokeWidth=1;fontFamily=Verdana;fontSize=8;align=center;strokeColor=light-dark(default, #ff2600);fillColor=light-dark(#FFFFFF,#FF3819);horizontal=0;fontColor=light-dark(#000000,#000000);" parent="6-05rhzxaWfV1tzNvJGl-14" vertex="1">
                    <mxGeometry x="1285.995" y="-2.004999999999825" width="30" height="1970" as="geometry"/>
                </mxCell>
                <mxCell id="JriK4sLv8e0eXFn3nyI7-2" value="&lt;font style=&quot;font-size: 18px;&quot;&gt;&lt;b style=&quot;color: rgba(0, 0, 0, 0);&quot;&gt;審査②&lt;/b&gt;&lt;/font&gt;" style="rounded=1;whiteSpace=wrap;html=1;shadow=0;labelBackgroundColor=none;strokeWidth=1;fontFamily=Verdana;fontSize=8;align=center;strokeColor=light-dark(default, #ff2600);fillColor=light-dark(#FFFFFF,#FF3819);horizontal=0;fontColor=light-dark(#000000,#000000);" parent="6-05rhzxaWfV1tzNvJGl-14" vertex="1">
                    <mxGeometry x="1120.135" y="-1.004999999999825" width="30" height="1970" as="geometry"/>
                </mxCell>
                <mxCell id="JriK4sLv8e0eXFn3nyI7-1" value="&lt;font style=&quot;font-size: 18px;&quot;&gt;&lt;b style=&quot;color: rgba(0, 0, 0, 0);&quot;&gt;審査①&lt;/b&gt;&lt;/font&gt;" style="rounded=1;whiteSpace=wrap;html=1;shadow=0;labelBackgroundColor=none;strokeWidth=1;fontFamily=Verdana;fontSize=8;align=center;strokeColor=light-dark(default, #ff2600);fillColor=light-dark(#FFFFFF,#FF3819);horizontal=0;fontColor=light-dark(#000000,#000000);" parent="6-05rhzxaWfV1tzNvJGl-14" vertex="1">
                    <mxGeometry x="959.995" y="-0.004999999999824922" width="30" height="1970" as="geometry"/>
                </mxCell>
                <mxCell id="6-05rhzxaWfV1tzNvJGl-24" value="&lt;font style=&quot;font-size: 18px;&quot;&gt;&lt;b&gt;安全審査申請書（本エントリー）&lt;/b&gt;&lt;/font&gt;" style="rounded=1;whiteSpace=wrap;html=1;shadow=0;labelBackgroundColor=none;strokeWidth=1;fontFamily=Verdana;fontSize=8;align=center;strokeColor=#001DBC;fillColor=#0050ef;fontColor=#ffffff;horizontal=0;" parent="6-05rhzxaWfV1tzNvJGl-14" vertex="1">
                    <mxGeometry x="572.5" width="27.5" height="1970" as="geometry"/>
                </mxCell>
                <mxCell id="HzPNLnH7VD_IH8l2VW2Z-10" value="エンジン" style="swimlane;whiteSpace=wrap;html=1;rotation=-90;fillColor=#008a00;fontColor=#ffffff;strokeColor=#005700;movable=1;resizable=1;rotatable=1;deletable=1;editable=1;locked=0;connectable=1;container=0;" parent="6-05rhzxaWfV1tzNvJGl-14" vertex="1">
                    <mxGeometry x="607.265" y="-606.1249999999998" width="483.5" height="1695.75" as="geometry"/>
                </mxCell>
                <mxCell id="HzPNLnH7VD_IH8l2VW2Z-12" value="電装" style="swimlane;whiteSpace=wrap;html=1;rotation=-90;dashed=1;dashPattern=8 8;fillColor=#0050ef;fontColor=#ffffff;strokeColor=#001DBC;movable=1;resizable=1;rotatable=1;deletable=1;editable=1;locked=0;connectable=1;container=0;" parent="6-05rhzxaWfV1tzNvJGl-14" vertex="1">
                    <mxGeometry x="597.265" y="371.7250000000002" width="503.12" height="1695.38" as="geometry"/>
                </mxCell>
                <mxCell id="HzPNLnH7VD_IH8l2VW2Z-100" value="全体" style="swimlane;whiteSpace=wrap;html=1;rotation=-90;dashed=1;dashPattern=8 8;fillColor=light-dark(#a20025, #ff9300);fontColor=#ffffff;strokeColor=#6F0000;movable=1;resizable=1;rotatable=1;deletable=1;editable=1;locked=0;connectable=1;container=0;" parent="6-05rhzxaWfV1tzNvJGl-14" vertex="1">
                    <mxGeometry x="601.495" y="870.4350000000002" width="495.05" height="1698.04" as="geometry"/>
                </mxCell>
                <mxCell id="_zdbnvrD7gKRoGHDi2ac-60" value="&lt;font style=&quot;font-size: 18px;&quot;&gt;最終&lt;/font&gt;&lt;div&gt;&lt;font style=&quot;font-size: 18px;&quot;&gt;重心計測&lt;/font&gt;&lt;/div&gt;" style="rounded=1;whiteSpace=wrap;html=1;shadow=0;labelBackgroundColor=none;strokeWidth=1;fontFamily=Verdana;fontSize=8;align=center;" parent="6-05rhzxaWfV1tzNvJGl-14" vertex="1">
                    <mxGeometry x="1139.995" y="665.9950000000001" width="100" height="60" as="geometry"/>
                </mxCell>
                <mxCell id="HzPNLnH7VD_IH8l2VW2Z-98" value="&lt;span style=&quot;font-size: 13px;&quot;&gt;安全審査申請書作成&lt;/span&gt;" style="rounded=1;whiteSpace=wrap;html=1;shadow=0;labelBackgroundColor=none;strokeWidth=1;fontFamily=Verdana;fontSize=8;align=center;arcSize=17;" parent="6-05rhzxaWfV1tzNvJGl-14" vertex="1">
                    <mxGeometry x="370" y="1483.99" width="100" height="60" as="geometry"/>
                </mxCell>
                <mxCell id="6-05rhzxaWfV1tzNvJGl-16" value="&lt;font size=&quot;2&quot;&gt;GSE配管図&lt;/font&gt;&lt;div&gt;&lt;font size=&quot;2&quot;&gt;作成&lt;/font&gt;&lt;/div&gt;" style="rounded=1;whiteSpace=wrap;html=1;shadow=0;labelBackgroundColor=none;strokeWidth=1;fontFamily=Verdana;fontSize=8;align=center;arcSize=17;" parent="6-05rhzxaWfV1tzNvJGl-14" vertex="1">
                    <mxGeometry x="371.49" y="150" width="78.51" height="60" as="geometry"/>
                </mxCell>
                <mxCell id="_zdbnvrD7gKRoGHDi2ac-51" value="&lt;font style=&quot;font-size: 17px;&quot;&gt;プレ審査作成期&amp;nbsp;&lt;/font&gt;" style="rounded=1;whiteSpace=wrap;html=1;shadow=0;labelBackgroundColor=none;strokeWidth=1;fontFamily=Verdana;fontSize=8;align=center;" parent="6-05rhzxaWfV1tzNvJGl-14" vertex="1">
                    <mxGeometry x="370" y="90" width="425" height="60" as="geometry"/>
                </mxCell>
                <mxCell id="_zdbnvrD7gKRoGHDi2ac-26" value="&lt;font style=&quot;font-size: 13px;&quot;&gt;地上燃焼試験&lt;/font&gt;" style="rounded=1;whiteSpace=wrap;html=1;shadow=0;labelBackgroundColor=none;strokeWidth=1;fontFamily=Verdana;fontSize=8;align=center;" parent="6-05rhzxaWfV1tzNvJGl-14" vertex="1">
                    <mxGeometry x="388.995" y="209.99500000000018" width="100" height="60" as="geometry"/>
                </mxCell>
                <mxCell id="6-05rhzxaWfV1tzNvJGl-6" value="&lt;span style=&quot;font-size: 14px;&quot;&gt;安全シンポ資料作成&lt;/span&gt;" style="rounded=1;whiteSpace=wrap;html=1;shadow=0;labelBackgroundColor=none;strokeWidth=1;fontFamily=Verdana;fontSize=8;align=center;container=0;" parent="6-05rhzxaWfV1tzNvJGl-14" vertex="1">
                    <mxGeometry x="1299.99" y="1488.99" width="131" height="50" as="geometry"/>
                </mxCell>
                <mxCell id="_zdbnvrD7gKRoGHDi2ac-31" value="&lt;font style=&quot;font-size: 14px;&quot;&gt;金属部品決定用FEM&lt;/font&gt;" style="rounded=1;whiteSpace=wrap;html=1;shadow=0;labelBackgroundColor=none;strokeWidth=1;fontFamily=Verdana;fontSize=8;align=center;" parent="6-05rhzxaWfV1tzNvJGl-14" vertex="1">
                    <mxGeometry x="329.99" y="485.99" width="120.01" height="60" as="geometry"/>
                </mxCell>
                <mxCell id="sIB03Bx3sCsSNIiQzMt4-1" value="&lt;span style=&quot;font-size: 13px;&quot;&gt;茗渓会支援&lt;/span&gt;&lt;div&gt;&lt;span style=&quot;font-size: 13px;&quot;&gt;申請書作成&lt;/span&gt;&lt;/div&gt;" style="rounded=1;whiteSpace=wrap;html=1;shadow=0;labelBackgroundColor=none;strokeWidth=1;fontFamily=Verdana;fontSize=8;align=center;arcSize=17;" parent="6-05rhzxaWfV1tzNvJGl-14" vertex="1">
                    <mxGeometry x="532.5" y="1895.9900000000002" width="100" height="60" as="geometry"/>
                </mxCell>
                <mxCell id="sIB03Bx3sCsSNIiQzMt4-5" style="edgeStyle=orthogonalEdgeStyle;rounded=0;orthogonalLoop=1;jettySize=auto;html=1;exitX=1;exitY=0.5;exitDx=0;exitDy=0;" parent="6-05rhzxaWfV1tzNvJGl-14" source="sIB03Bx3sCsSNIiQzMt4-3" edge="1">
                    <mxGeometry relative="1" as="geometry">
                        <mxPoint x="959.995" y="516.1616666666669" as="targetPoint"/>
                    </mxGeometry>
                </mxCell>
                <mxCell id="sIB03Bx3sCsSNIiQzMt4-3" value="&lt;font style=&quot;font-size: 14px;&quot;&gt;金属部品審査用FEM&lt;/font&gt;" style="rounded=1;whiteSpace=wrap;html=1;shadow=0;labelBackgroundColor=none;strokeWidth=1;fontFamily=Verdana;fontSize=8;align=center;" parent="6-05rhzxaWfV1tzNvJGl-14" vertex="1">
                    <mxGeometry x="674.99" y="485.99000000000007" width="120.01" height="60" as="geometry"/>
                </mxCell>
                <mxCell id="sIB03Bx3sCsSNIiQzMt4-4" value="&lt;font style=&quot;font-size: 14px;&quot;&gt;FEM解析条件の見直し&lt;/font&gt;" style="rounded=1;whiteSpace=wrap;html=1;shadow=0;labelBackgroundColor=none;strokeWidth=1;fontFamily=Verdana;fontSize=8;align=center;" parent="6-05rhzxaWfV1tzNvJGl-14" vertex="1">
                    <mxGeometry x="450" y="485.99" width="224.99" height="60" as="geometry"/>
                </mxCell>
                <mxCell id="sIB03Bx3sCsSNIiQzMt4-6" value="&lt;font style=&quot;font-size: 14px;&quot;&gt;金属部品&lt;/font&gt;&lt;div&gt;&lt;span style=&quot;font-size: 14px;&quot;&gt;荷重試験&lt;/span&gt;&lt;/div&gt;" style="rounded=1;whiteSpace=wrap;html=1;shadow=0;labelBackgroundColor=none;strokeWidth=1;fontFamily=Verdana;fontSize=8;align=center;" parent="6-05rhzxaWfV1tzNvJGl-14" vertex="1">
                    <mxGeometry x="674.99" y="590" width="285.01" height="60" as="geometry"/>
                </mxCell>
                <mxCell id="sIB03Bx3sCsSNIiQzMt4-7" value="&lt;div&gt;&lt;font style=&quot;font-size: 16px;&quot;&gt;地上燃焼試験報告書へのデータ記入&lt;/font&gt;&lt;/div&gt;&lt;font style=&quot;font-size: 16px;&quot;&gt;GSE運用手順書の見直し&lt;/font&gt;&lt;div&gt;&lt;font style=&quot;font-size: 16px;&quot;&gt;エンジン組み立て手順書の見直し&lt;br&gt;&lt;/font&gt;&lt;div&gt;&lt;font style=&quot;font-size: 16px;&quot;&gt;トラブルシューティング記入&lt;/font&gt;&lt;/div&gt;&lt;/div&gt;" style="rounded=1;whiteSpace=wrap;html=1;shadow=0;labelBackgroundColor=none;strokeWidth=1;fontFamily=Verdana;fontSize=8;align=center;" parent="6-05rhzxaWfV1tzNvJGl-14" vertex="1">
                    <mxGeometry x="489" y="210" width="511" height="110" as="geometry"/>
                </mxCell>
                <mxCell id="_zdbnvrD7gKRoGHDi2ac-69" value="&lt;font style=&quot;font-size: 12px;&quot;&gt;地上燃焼試験2nd&lt;/font&gt;" style="rounded=1;whiteSpace=wrap;html=1;shadow=0;labelBackgroundColor=none;strokeWidth=1;fontFamily=Verdana;fontSize=8;align=center;arcSize=20;" parent="6-05rhzxaWfV1tzNvJGl-14" vertex="1">
                    <mxGeometry x="1000.39" y="210" width="59.62" height="60" as="geometry"/>
                </mxCell>
                <mxCell id="sIB03Bx3sCsSNIiQzMt4-8" value="&lt;span style=&quot;font-size: 12px;&quot;&gt;試験結果&lt;/span&gt;&lt;div&gt;&lt;span style=&quot;font-size: 12px;&quot;&gt;追記&lt;/span&gt;&lt;/div&gt;" style="rounded=1;whiteSpace=wrap;html=1;shadow=0;labelBackgroundColor=none;strokeWidth=1;fontFamily=Verdana;fontSize=8;align=center;arcSize=20;" parent="6-05rhzxaWfV1tzNvJGl-14" vertex="1">
                    <mxGeometry x="1059.01" y="210.75" width="69.99" height="60" as="geometry"/>
                </mxCell>
                <mxCell id="sIB03Bx3sCsSNIiQzMt4-9" value="&lt;span style=&quot;font-size: 14px;&quot;&gt;ポスター作成&lt;/span&gt;" style="rounded=1;whiteSpace=wrap;html=1;shadow=0;labelBackgroundColor=none;strokeWidth=1;fontFamily=Verdana;fontSize=8;align=center;container=0;" parent="6-05rhzxaWfV1tzNvJGl-14" vertex="1">
                    <mxGeometry x="1060" y="1490" width="211" height="50" as="geometry"/>
                </mxCell>
                <mxCell id="sIB03Bx3sCsSNIiQzMt4-10" value="&lt;span style=&quot;font-size: 13px;&quot;&gt;OBOG支援&lt;/span&gt;&lt;div&gt;&lt;span style=&quot;font-size: 13px;&quot;&gt;依頼書作成&lt;/span&gt;&lt;/div&gt;" style="rounded=1;whiteSpace=wrap;html=1;shadow=0;labelBackgroundColor=none;strokeWidth=1;fontFamily=Verdana;fontSize=8;align=center;arcSize=17;" parent="6-05rhzxaWfV1tzNvJGl-14" vertex="1">
                    <mxGeometry x="532.5" y="1835.99" width="100" height="60" as="geometry"/>
                </mxCell>
                <mxCell id="sIB03Bx3sCsSNIiQzMt4-11" value="&lt;span&gt;審査書読み合わせ　役割確定&lt;/span&gt;" style="rounded=1;whiteSpace=wrap;html=1;shadow=0;labelBackgroundColor=none;strokeWidth=1;fontFamily=Verdana;fontSize=26;align=center;horizontal=0;" parent="6-05rhzxaWfV1tzNvJGl-14" vertex="1">
                    <mxGeometry x="284" y="3" width="80" height="1467" as="geometry"/>
                </mxCell>
                <mxCell id="sIB03Bx3sCsSNIiQzMt4-12" value="&lt;span style=&quot;font-size: 14px;&quot;&gt;NSE21st用名刺発注&lt;/span&gt;&lt;div&gt;&lt;span style=&quot;font-size: 14px;&quot;&gt;作業着発注&lt;/span&gt;&lt;/div&gt;" style="rounded=1;whiteSpace=wrap;html=1;shadow=0;labelBackgroundColor=none;strokeWidth=1;fontFamily=Verdana;fontSize=8;align=center;container=0;" parent="6-05rhzxaWfV1tzNvJGl-14" vertex="1">
                    <mxGeometry x="725.99" y="1785.99" width="265.01" height="50" as="geometry"/>
                </mxCell>
                <mxCell id="sIB03Bx3sCsSNIiQzMt4-13" value="&lt;span style=&quot;font-size: 14px;&quot;&gt;NSE21st用名刺デザイン完成&lt;/span&gt;&lt;div&gt;&lt;span style=&quot;font-size: 14px;&quot;&gt;作業着デザイン，募集&lt;/span&gt;&lt;/div&gt;" style="rounded=1;whiteSpace=wrap;html=1;shadow=0;labelBackgroundColor=none;strokeWidth=1;fontFamily=Verdana;fontSize=8;align=center;container=0;" parent="6-05rhzxaWfV1tzNvJGl-14" vertex="1">
                    <mxGeometry x="370" y="1785.99" width="355.99" height="50" as="geometry"/>
                </mxCell>
            </root>
        </mxGraphModel>
    </diagram>
</mxfile>